<?xml version="1.0" encoding="utf-8"?>
<!-- Generator: Adobe Illustrator 18.0.0, SVG Export Plug-In . SVG Version: 6.00 Build 0)  -->
<!DOCTYPE svg PUBLIC "-//W3C//DTD SVG 1.1//EN" "http://www.w3.org/Graphics/SVG/1.1/DTD/svg11.dtd">
<svg version="1.1" id="Calque_1_-_copie_3" xmlns="http://www.w3.org/2000/svg" xmlns:xlink="http://www.w3.org/1999/xlink" x="0px"
	 y="0px" viewBox="0 0 960 560" enable-background="new 0 0 960 560" xml:space="preserve">
<g>
	<g>
		<path d="M249.7,210.2c0,1.8-0.3,3.6-0.6,5.4c-0.6,2.7-0.6,5.1-0.6,7.8v33.3c0,3.9-1.2,7.8-3.6,11.4c-1.2,1.5-2.7,3-4.2,3.9
			c-1.8,1.2-3.6,1.8-5.7,1.8c-3.9,0-7.2-1.5-9.9-4.5c-1.5-1.2-2.7-2.7-3.9-4.2s-2.4-3-3.6-4.2c-2.1-3-5.7-7.8-11.4-14.4
			c-2.7-3.3-5.1-6-7.2-8.1c-2.4-2.1-3.9-3.3-5.1-3.6c0,5.7,0,11.7-0.3,17.4c0,2.1-0.3,4.2-0.3,6.6c0,1.8,0.3,3.6,0.9,5.4
			c0.6,1.8,0.9,3.6,0.9,5.7c0,1.2-0.3,2.4-1.2,3.6c-0.9,1.2-2.1,2.1-3.6,3c-3,1.8-5.7,2.7-8.1,2.7c-0.6-0.3-0.9-0.6-1.2-1.8
			c-0.6-1.8-1.2-3.9-1.5-6s-0.6-3.9-0.9-6c-0.9-6.6-1.5-13.2-2.4-19.8c-1.2-7.2-2.4-14.4-3.6-21.6c-0.3-2.1-0.9-4.2-1.2-6.3
			c-0.6-2.4-0.6-4.5-0.6-6.3c0-1.2,0.3-2.4,1.2-3.9c0.6-1.2,1.5-2.4,2.7-3.6c2.4-2.1,4.8-3.3,7.2-3.3c1.8,0,3.3,0.3,5.1,0.9
			s3,1.8,3.9,3.3c1.5,2.4,3.3,3.9,5.7,5.4c1.8,0.9,3,2.1,4.5,3.6c1.2,1.5,2.4,3.3,3.3,4.8c8.4,10.8,16.5,21.3,24.9,31.8
			c0.6-0.3,0.9-1.2,1.2-2.1c0.3-0.9,0.3-1.8,0.3-3c0-2.4,0-4.2,0-5.4v-24c0.3-9,4.5-13.5,13.2-13.5c1.5,0,3,0.9,3.9,2.7
			C249.1,207.2,249.7,208.7,249.7,210.2z"/>
		<path d="M310.9,227.9c0,7.2-2.1,15-6,22.8s-9,13.8-15.3,17.7c-1.8,0.9-5.1,2.7-9.9,4.8c-2.1,0.9-4.2,1.8-6,2.4
			c-1.8,0.9-3,1.2-3.9,1.2s-1.2-0.3-1.5-1.2c-0.3-0.6-0.6-1.2-0.9-1.8c-0.6-2.1-0.9-4.5-0.9-6.6c-0.3-2.4-0.6-4.5-0.9-6.6
			c-0.9-7.8-1.8-15.6-2.4-23.4c-0.6-7.5-1.5-14.7-1.8-22.2c-0.6-5.1-0.9-10.5-0.9-15.6c0-1.5,0.3-2.7,0.6-3.3
			c0.6-0.6,1.2-1.2,2.4-1.8c3.9-1.8,8.1-2.7,12.3-2.7c7.2,0,13.5,2.4,19.2,6.9c5.4,4.5,9.6,9.9,12.3,16.5
			C309.7,218.6,310.9,223.1,310.9,227.9z M294.4,229.4c-0.3-9.6-4.8-16.2-13.8-19.5c-0.9-0.3-1.8-0.6-3-0.9c-0.9,0-1.5,0.6-1.5,1.5
			c0,0.6,0,1.2,0.3,1.5c1.2,7.5,2.1,15,2.1,22.5c0.3,4.2,0.3,8.1,0.3,12c0,2.1-0.3,4.5-0.3,6.6c0,0.3,0,0.9,0,1.5s0.3,1.2,0.9,1.5
			c4.2-3.3,7.5-7.2,10.5-12C292.9,239.6,294.4,234.8,294.4,229.4z"/>
		<path d="M394.9,200.6c-1.2-0.6-2.4-0.9-4.2-1.2c-3.6-0.3-6.6-0.6-8.4-0.6c-3.6,0-7.5,0.6-11.4,1.8c-3.9,1.2-7.8,2.1-11.7,2.7
			c-0.6,0-1.2,0.3-1.5,0.3c-0.6,0-0.9,0.3-1.2,0.9c-0.6,0.6-0.9,1.5-0.9,3.3c0,0.9,0,2.1,0,3.3c-0.3,12.9-0.9,25.8-2.1,38.4
			c-0.3,4.8-0.6,9.6-0.6,14.1c0,1.8,0.3,3.6,0.6,5.7c0.6,1.8,1.2,3.6,2.7,5.1c2.1,1.8,5.1,3.6,9.3,5.4c2.1,0.9,3.9,1.5,6,2.1
			c1.8,0.6,3.3,0.9,4.5,0.9c3.9,0,6.9-1.5,9-3.9s3.3-5.7,3.3-9.6c0-1.2,0-2.1,0-2.7c-0.3-0.6-0.9-0.6-2.1-0.6
			c-5.7,0-10.2-1.2-13.5-3.6c-3.6-2.4-5.1-6.6-5.1-12.9c0-2.1,0-3.9,0.3-6h10.5c1.5,0,3.3-0.6,5.4-1.5c0.9-0.6,1.8-1.2,2.4-1.8
			c0.9-0.9,0.9-2.1,1.5-3.3c0.6-1.2,0.6-1.8-0.3-2.7c-0.6-0.9-1.5-0.9-2.4-0.9c-2.1,0-4.2,0-6,0c-3.3,0-6.9,0-10.2,0.3
			c0.3-7.5,0.3-15,0.3-22.5c0.9-0.3,1.8-0.3,2.7-0.3c2.4,0,4.5,0.3,6.9,0.6c2.4,0.6,4.5,0.6,6.9,0.6c0.6,0,1.2,0,2.1,0
			c0.9-0.3,1.5-0.3,1.8-0.6l7.8-6c0.3-0.6,0.6-1.2,0.6-1.8C396.4,202.1,395.8,201.2,394.9,200.6z"/>
		<path d="M554.5,238.4c0,4.2-0.3,8.4-0.9,13.2c-0.6,4.8-2.1,9-3.9,13.2c-1.8,4.2-4.2,7.5-7.5,9.9c-3.3,2.7-7.5,4.2-12.9,4.2
			c-11.1,0-18.9-3.3-22.8-9.9c-3.9-6.3-6-14.7-5.7-25.2c0-7.5,0.9-15,3.3-22.2c2.4-7.2,6.9-12.9,13.5-16.8c3.9-2.4,7.8-3.3,12.3-3.3
			c4.2,0,7.8,1.2,11.1,3.9c3,2.4,5.4,5.7,7.5,9.6C552.7,222.8,554.5,230.9,554.5,238.4z M536.2,248c0-3-0.6-6-1.2-9
			c-0.3-2.1-1.5-6-3-12c-0.6-2.7-1.5-4.8-2.4-6.9c-0.9-1.8-1.8-2.7-2.4-2.7c-2.1,0-3.6,0.9-4.8,2.1c-1.2,1.5-2.1,3-2.4,5.4
			c-0.9,4.8-1.2,8.7-1.2,12c0,2.1,0.3,4.5,0.6,7.2c0.3,3,0.9,6,1.8,8.7c0.9,2.7,2.1,5.4,3.9,7.2c1.8,2.1,4.2,3.3,6.9,3.3
			c0.9,0,1.8-0.6,2.4-2.1c0.6-1.5,0.9-3,1.5-4.8C536.2,252.5,536.2,249.8,536.2,248z"/>
		<path d="M565,223.1c0-2.7,0.9-5.4,3-8.1c1.8-3,3.6-5.4,5.4-7.5c1.5-1.8,3.6-4.5,6.6-7.8c1.5-1.5,2.7-2.7,4.2-3.6
			c3-2.1,8.4-2.1,9.9,1.8c0.6,1.2,1.2,2.1,1.2,2.7c0,1.2-0.9,2.7-2.4,4.2s-3,3.3-4.8,5.1c-2.1,1.8-3.6,3.9-5.1,6
			c-1.2,1.8-2.1,3.9-2.1,6c0,1.8,0.9,3.9,2.7,6.6c1.8,2.4,4.2,4.8,6.6,7.8s4.5,6,6.3,9.3c2.1,3.3,3,6.9,3,10.5
			c0,6.3-2.4,12.9-6.9,19.5c-2.1,3.3-4.5,6-7.5,7.8c-2.7,2.1-5.7,3-8.7,3c-0.6,0-1.5-0.3-2.1-1.2c-0.6-0.6-1.5-1.5-2.1-2.7
			c-1.2-2.4-2.1-4.2-2.1-5.7c0-0.6,0.3-1.2,0.6-1.8c0.6-0.9,1.2-1.5,1.8-1.5c0.9,0,1.8-0.6,2.7-1.5c0.9-1.2,1.8-2.4,2.7-4.2
			c1.8-3.6,3-6.3,3.6-7.8c0.6-2.4,1.2-4.8,1.2-7.2c0-3-0.9-6-2.7-8.4c-1.8-2.4-3.6-4.8-6-7.2c-2.4-2.1-4.2-4.5-6-6.6
			C565.9,228.5,565,225.8,565,223.1z"/>
		<path d="M667,207.5c0,2.7-0.6,4.8-1.8,6.3c-1.2,1.5-2.7,2.7-4.8,3c-2.1,0.6-4.2,0.9-6.6,0.9c-2.4,0.3-4.5,0.3-6.6,0.3
			c-1.8,0-3.9,0-5.7,0c-0.3,3-0.6,5.7-1.2,8.7s-0.9,6-1.2,9l-0.6,25.2c0,1.8,0,3.9,0,6.3c0,2.4-0.3,5.1-0.9,7.2
			c-0.6,2.4-1.5,4.2-2.7,5.7s-3.3,2.4-6,2.7c-0.6,0.3-1.2,0.3-1.8,0.3c-0.9,0-1.5-0.6-1.8-1.8c-0.3-0.9-0.6-1.8-0.6-2.4
			c0-4.5,0.3-9,0.9-13.5c0.9-10.8,1.5-21.6,1.5-32.1c0-5.7-0.6-11.4-1.5-17.1c-1.5-0.3-3.6-0.9-6-1.5s-5.1-1.2-7.5-2.1
			s-4.5-2.4-6.3-3.9s-2.7-3.3-2.7-5.1c0-0.9,0.3-2.1,1.2-2.7c0.6-0.9,1.5-1.2,2.4-1.2h5.1c0.3-0.3,0.9-0.6,1.8-0.9s1.8-0.3,2.7-0.3
			c2.1,0,3.6,0,4.5,0c6.6,0,13.2,0.6,20.1,1.2c3.9,0.3,7.8,0.6,11.7,1.2c1.8,0.9,3.3,1.2,5.1,1.5c1.8-0.3,3.3-0.3,5.1-0.6
			c1.5,0,2.4,0.6,3.3,1.8C666.7,204.8,667,206,667,207.5z"/>
		<path d="M717.7,280.7c-1.2,0.6-2.4,0.9-4.2,1.2c-3.6,0.3-6.6,0.6-8.4,0.6c-3.6,0-7.5-0.6-11.4-1.8s-7.8-2.1-11.7-2.7
			c-0.6,0-1.2-0.3-1.5-0.3c-0.6,0-0.9-0.3-1.2-0.9c-0.6-0.6-0.9-1.5-0.9-3.3c0-0.9,0-2.1,0-3.3c-0.3-12.9-0.9-25.8-2.1-38.4
			c-0.3-4.8-0.6-9.6-0.6-14.1c0-1.8,0.3-3.6,0.6-5.7c0.6-1.8,1.2-3.6,2.7-5.1c2.1-1.8,5.1-3.6,9.3-5.4c2.1-0.9,3.9-1.5,6-2.1
			c1.8-0.6,3.3-0.9,4.5-0.9c3.9,0,6.9,1.5,9,3.9s3.3,5.7,3.3,9.6c0,1.2,0,2.1,0,2.7c-0.3,0.6-0.9,0.6-2.1,0.6
			c-5.7,0-10.2,1.2-13.5,3.6c-3.6,2.4-5.1,6.6-5.1,12.9c0,2.1,0,3.9,0.3,6h10.5c1.5,0,3.3,0.6,5.4,1.5s6.6,3,5.7,6
			c-0.3,0.9-0.9,1.8-1.8,2.1c-2.4,1.2-6,0.9-8.7,0.9c-3.3,0-6.9,0-10.2-0.3c0.3,7.5,0.3,15,0.3,22.5c0.9,0.3,1.8,0.3,2.7,0.3
			c2.4,0,4.5-0.3,6.9-0.6c2.4-0.6,4.5-0.6,6.9-0.6c0.6,0,1.2,0,2.1,0c0.9,0.3,1.5,0.3,1.8,0.6l7.8,6c0.3,0.6,0.6,1.2,0.6,1.8
			C719.5,279.2,718.9,280.1,717.7,280.7z"/>
		<path d="M781,275.3c0,2.7-6.6,4.8-8.7,4.8c-0.9,0-2.1-0.6-3-1.2c-0.9-0.9-2.1-1.8-3.3-3c-2.4-2.7-4.5-5.7-6.6-8.7
			c-2.1-3.3-4.2-6.3-6.3-8.7c-2.1-2.4-3.9-3.9-5.4-3.9v18.9c0,0.6-0.3,1.8-1.2,3.3c-0.6,1.5-1.8,3-3,4.8c-1.2,1.5-2.4,3-3.6,4.2
			s-2.4,1.8-3.3,2.1c-6,0-9-3.3-9-9.6c0-3,0.3-6,0.9-9c0.6-4.5,0.6-8.7,0.6-12.9c0-11.4-0.6-22.8-1.5-33.9
			c-0.6-5.7-0.9-11.1-0.9-16.8c0-9,8.1-15.6,16.5-15.6c5.7,0,12,1.2,18.3,3.9c3,1.5,5.4,3.3,7.5,5.4c1.8,2.4,2.7,5.1,2.7,8.7
			c0,3.3-0.9,6.9-2.7,9.9c-1.8,3.3-3.6,6.3-6,9c-2.1,2.7-4.2,5.1-6,7.2s-2.7,3.6-2.7,4.8c0,0.3,0.6,0.9,1.5,1.8s2.1,1.8,3.3,2.7
			c2.7,2.1,4.8,3.6,6,4.5c2.1,1.8,4.2,3.9,6,6c1.8,1.8,3,3.9,3.9,6s1.5,4.5,2.4,6.9c0.6,0.9,1.2,2.4,1.8,4.2
			C780.7,272.9,781,274.4,781,275.3z M759.4,209.9c0-1.8-0.6-3-1.5-3.6s-2.1-0.6-3.6-0.6c-1.2,0-2.7,0.3-4.2,0.9s-3,1.2-4.2,1.8
			l0.6,23.4c1.2-0.6,2.7-1.8,4.2-3.6c1.5-1.8,3-3.9,4.2-6C757.6,216.8,759.1,212.9,759.4,209.9z"/>
		<path d="M820.6,257.9c0,2.7-0.9,5.4-3,8.1c-1.8,3-3.6,5.4-5.4,7.5c-1.5,1.8-3.6,4.5-6.6,7.8c-1.5,1.5-2.7,2.7-4.2,3.9
			c-5.7,4.2-14.4-2.4-8.7-8.4c1.5-1.5,3-3.3,4.8-5.1c2.1-1.8,3.6-3.9,5.1-6c1.2-1.8,2.1-3.9,2.1-6c0-1.8-0.9-3.9-2.7-6.6
			c-1.8-2.4-4.2-4.8-6.6-7.8s-4.5-6-6.3-9.3c-2.1-3.3-3-6.9-3-10.5c0-6.3,2.4-12.9,6.9-19.5c2.1-3.3,4.5-6,7.5-7.8
			c2.7-2.1,5.7-3,8.7-3c0.6,0,1.5,0.3,2.1,1.2c0.6,0.6,1.5,1.5,2.1,2.7c1.2,2.4,2.1,4.2,2.1,5.7c0,2.4-3,3.3-4.5,4.5
			c-3.6,3-5.7,8.1-6.9,12.3c-0.6,2.4-1.2,4.8-1.2,7.2c0,3,0.9,6,2.7,8.4c1.8,2.4,3.6,4.8,6,7.2c2.4,2.1,4.2,4.5,6,6.6
			C819.7,252.5,820.6,254.9,820.6,257.9z"/>
		<g>
			<path d="M338.8,251.3c-0.3,3.3-3.3,11.4-8.4,10.2c-4.5-1.2-7.2-7.5-7.5-11.1c-1.2-9.3,1.2-21.6,0.6-30.6
				c-0.9-7.2-1.2-14.7-0.6-21.9c0.3-2.1,1.2-3.6,2.7-4.5s3.3-1.2,5.1-1.2c1.8,0.3,6.3,0.9,7.2,2.4c0.6,1.2,0.9,3,0.9,5.1
				c-0.6,5.4-0.9,10.8-1.2,15.9c-0.3,4.2-0.3,8.4-0.3,12.6c0,2.7,0.3,5.7,0.9,8.7C338.8,239.6,339.1,248.6,338.8,251.3z
				 M340.9,277.4c-0.3,2.4-1.2,4.2-3,5.7s-7.2,2.1-9.3,2.1c-2.1-0.3-3.3-1.5-3.3-3.6c-0.3-1.8-0.3-3.9,0-5.7
				c0.3-2.1,0.9-3.9,2.7-5.1c1.5-1.2,6.3-1.8,8.1-1.8c2.1,0.3,3.6,1.2,4.5,2.7C340.9,273.5,341.2,275.3,340.9,277.4z"/>
		</g>
		<g>
			<path d="M141.7,228.5c0.3-3,0.3-12,3.6-13.2c6.3-1.8,12,7.2,12.3,11.1c1.2,9.3-1.2,21.6-0.6,30.6c0.9,7.2,1.2,14.7,0.6,21.9
				c-0.3,2.1-1.2,3.6-2.7,4.5s-6.3,1.2-8.4,1.2c-1.8-0.3-3.3-0.9-4.2-2.4c-0.6-1.2-0.9-3-0.9-5.1c0.6-5.4,0.9-10.8,1.2-15.9
				c0.3-4.2,0.3-8.4,0.3-12.6c0-2.7-0.3-5.7-0.9-8.7C141.7,237.2,141.7,231.2,141.7,228.5z M139.6,199.4c0.3-2.4,1.2-4.2,3-5.7
				s3.9-2.1,6.3-2.1c2.1,0.3,6.3,1.5,6.6,3.6c0.3,1.8,0.3,3.9,0,5.7c-0.3,2.1-0.9,3.9-2.7,5.1c-1.5,1.2-6.3,1.8-8.1,1.8
				c-2.1-0.3-3.6-1.2-4.5-2.7C139.6,203.3,139.3,201.5,139.6,199.4z"/>
		</g>
		<path d="M487.3,201.5c0.3-1.8,0-3.6-0.9-4.8c-0.9-1.2-5.4-2.1-7.2-2.1c-1.8-0.3-3.6,0.3-5.1,1.2c-1.8,0.9-2.7,2.4-2.7,4.2
			c-0.6,6.9-0.3,13.8,0.6,20.7c0.3,1.5,0,3.3,0,4.8s0,3.6-0.6,5.1c-0.6,1.2-2.7,1.5-4.2,1.8c-2.1,0.3-4.2,0.6-6.3,0.6
			s-3.9-0.3-3.9-2.4c0-0.3,0-0.9,0-1.2c0-7.8,0.6-15.9,0-23.7c0-0.3,0-0.6,0-1.2c-0.6-3.6-6-9.3-12.3-7.5c-3.3,0.9-3.3,9.6-3.6,12.3
			c-0.3,2.4,0,28.2,0.3,31.2c0.6,3,0.9,5.7,0.9,8.1c0,3.9,0,8.1-0.3,11.7c-0.3,5.1-0.6,10.2-1.2,15c-0.3,1.8,0,3.6,0.9,4.8
			s2.1,2.1,4.2,2.1c1.8,0.3,6.6-0.3,8.4-1.2c1.8-0.9,2.7-2.4,2.7-4.2c0.6-6.9,0.3-13.8-0.6-20.7c-0.3-1.2,0-2.4,0-3.6
			c0-0.9,0-2.1,0.3-3c0.6-0.9,1.5-1.2,2.7-1.5s2.4-0.6,3.6-0.6c1.8-0.3,3.9-0.3,6,0s2.7,1.2,2.7,3c-0.3,2.4,0,4.8-0.3,6.9
			c0,3.6,0,7.2,0,11.1c0,0.6,0,0.9,0,1.5c0.3,3.6,3,9.3,7.5,10.5c5.1,1.2,8.1-6.6,8.4-9.6c0.3-2.4,0-30.9-0.3-34.2
			c-0.6-3-0.9-5.7-0.9-8.1c0-3.9,0-8.1,0.3-11.7C486.4,211.4,487,206.3,487.3,201.5z"/>
	</g>
</g>
</svg>
