<?xml version="1.0" encoding="utf-8"?>
<!-- Generator: Adobe Illustrator 17.0.0, SVG Export Plug-In . SVG Version: 6.00 Build 0)  -->
<!DOCTYPE svg PUBLIC "-//W3C//DTD SVG 1.1//EN" "http://www.w3.org/Graphics/SVG/1.1/DTD/svg11.dtd">
<svg version="1.1" id="Layer_1" xmlns="http://www.w3.org/2000/svg" xmlns:xlink="http://www.w3.org/1999/xlink" x="0px" y="0px"
	 width="254.66px" height="148.803px" viewBox="0 0 254.66 148.803" enable-background="new 0 0 254.66 148.803"
	 xml:space="preserve">
<g>
	<path fill="#00B3C3" d="M254.66,130.904c0,9.886-8.014,17.899-17.899,17.899H17.899C8.014,148.803,0,140.789,0,130.904V17.899
		C0,8.014,8.014,0,17.899,0h218.861c9.886,0,17.899,8.014,17.899,17.899V130.904z"/>
</g>
<g>
	<g>
		<path fill="#FFFFFF" d="M68.119,101.16c6.343,1.579,10.165-7.922,10.47-11.744c0.305-2.853,0-13.655-0.637-17.45
			c-0.637-3.49-0.942-6.98-1.274-10.165c0-5.069,0-9.833,0.637-14.597c0.305-6.343,0.942-12.381,1.579-18.724
			c0.305-2.548,0-4.432-0.942-5.706c-0.942-1.579-6.343-2.548-8.891-2.853c-2.216-0.305-4.432,0.305-6.343,1.274
			c-1.911,0.942-3.185,2.853-3.49,5.401c-0.637,8.559-0.637,17.145,0.637,25.703c0.305,2.216,0.305,4.127,0,6.343
			c0,1.274,0,2.548-0.305,3.795c0,1.274,0,2.216-1.274,3.185c-1.274,0.942-2.853,1.274-4.432,1.579
			c-2.548,0.305-5.069,0.942-7.617,0.637c-1.274,0-3.185,0-4.127-0.942c-0.637-0.637-0.305-1.911-0.305-2.853
			c0-2.216,0-4.432-0.305-6.343c-0.637-4.432-7.284-11.744-15.234-9.528c-4.127,1.274-3.795,11.744-4.432,15.234
			c-0.305,2.853,0,9.833,0.637,13.655c0.637,3.49,0.942,6.98,1.274,10.165c0,5.069,0,9.833-0.637,14.597
			c-0.305,6.343-0.942,12.381-1.579,18.724c-0.305,2.548,0,4.432,0.942,5.706c0.942,1.579,2.853,2.548,5.069,2.853
			s8.254-0.305,10.165-1.274c1.911-0.942,3.185-2.853,3.49-5.401c0.637-7.617,0.637-15.538-0.305-23.488
			c-0.305-1.911-0.305-3.795-0.305-5.706c0-1.579-0.305-3.795,0.942-5.401c0.637-0.942,1.911-1.274,2.853-1.579
			c1.579-0.305,2.853-0.637,4.432-0.942c2.216-0.305,4.764-0.305,6.98,0c0.942,0,1.579,0.305,2.548,0.942
			c1.274,1.274,0.942,3.185,1.579,4.764c0.637,1.911,1.274,3.49,2.216,5.401C63.355,98.611,65.571,100.523,68.119,101.16z"/>
	</g>
	<g>
		<path fill="#FFFFFF" d="M80.168,113.208c-0.942-1.911-2.853-2.853-5.401-3.185c-2.548,0-8.254,0.637-10.165,1.911
			c-1.911,1.579-2.853,3.795-3.185,6.038c-0.305,2.216-0.305,4.432,0,6.675c0.305,2.548,1.579,3.795,4.127,4.127
			c2.853,0,9.196-0.637,11.411-2.216c2.216-1.911,3.49-4.127,3.795-6.98C81.442,117.64,81.11,115.424,80.168,113.208z"/>
	</g>
	<g>
		<path fill="#FFFFFF" d="M36.073,36.735c1.911-1.579,2.853-3.795,3.185-6.038c0.305-2.216,0.637-5.069-0.305-7.284
			c-1.274-2.548-5.069-3.185-7.617-3.795c-2.853,0-5.401,0.637-7.922,2.216c-2.216,1.911-3.49,4.127-3.795,6.98
			c-0.305,2.216,0.305,4.432,1.274,6.675c0.942,1.911,2.853,2.853,5.401,3.185C28.456,38.951,34.162,38.009,36.073,36.735z"/>
	</g>
</g>
<g>
	<path fill="#FFFFFF" d="M103.366,32.922c-1.09,0-1.945-0.396-2.565-1.188h-0.133c0.088,0.775,0.133,1.224,0.133,1.346v3.76h-2.532
		V23.476h2.059l0.357,1.204h0.116c0.592-0.919,1.469-1.379,2.631-1.379c1.096,0,1.954,0.424,2.573,1.271s0.93,2.022,0.93,3.528
		c0,0.99-0.146,1.851-0.436,2.581c-0.291,0.73-0.705,1.286-1.241,1.669C104.722,32.73,104.091,32.922,103.366,32.922z
		 M102.619,25.326c-0.625,0-1.082,0.192-1.37,0.577s-0.437,1.02-0.448,1.905v0.273c0,0.996,0.148,1.711,0.444,2.143
		c0.296,0.432,0.765,0.646,1.407,0.646c1.134,0,1.702-0.935,1.702-2.805c0-0.914-0.14-1.599-0.419-2.055
		C103.655,25.555,103.216,25.326,102.619,25.326z"/>
	<path fill="#FFFFFF" d="M113.356,23.301c0.343,0,0.628,0.025,0.855,0.075l-0.191,2.374c-0.205-0.056-0.454-0.083-0.747-0.083
		c-0.808,0-1.438,0.208-1.889,0.622c-0.451,0.416-0.676,0.996-0.676,1.744v4.723h-2.532v-9.28h1.917l0.374,1.561h0.125
		c0.288-0.521,0.676-0.939,1.167-1.258C112.248,23.46,112.781,23.301,113.356,23.301z"/>
	<path fill="#FFFFFF" d="M123.48,28.1c0,1.51-0.398,2.691-1.195,3.544s-1.906,1.278-3.329,1.278c-0.891,0-1.677-0.195-2.357-0.585
		c-0.681-0.391-1.204-0.95-1.569-1.681s-0.548-1.583-0.548-2.557c0-1.517,0.396-2.695,1.187-3.537
		c0.792-0.841,1.904-1.262,3.337-1.262c0.891,0,1.677,0.194,2.357,0.582c0.681,0.387,1.204,0.943,1.569,1.668
		S123.48,27.125,123.48,28.1z M117.063,28.1c0,0.918,0.151,1.612,0.453,2.083c0.301,0.471,0.792,0.706,1.473,0.706
		c0.675,0,1.161-0.234,1.457-0.702c0.296-0.468,0.444-1.163,0.444-2.087c0-0.919-0.149-1.608-0.448-2.067s-0.789-0.688-1.469-0.688
		c-0.675,0-1.162,0.228-1.461,0.685C117.213,26.484,117.063,27.175,117.063,28.1z"/>
	<path fill="#FFFFFF" d="M131.296,32.756l-0.34-1.188h-0.133c-0.271,0.432-0.656,0.766-1.154,1.001s-1.065,0.353-1.702,0.353
		c-1.09,0-1.912-0.292-2.465-0.876s-0.83-1.423-0.83-2.519v-6.052h2.532v5.421c0,0.669,0.119,1.171,0.357,1.506
		s0.617,0.502,1.137,0.502c0.708,0,1.22-0.236,1.536-0.709c0.315-0.474,0.473-1.258,0.473-2.354v-4.366h2.532v9.28H131.296z"/>
	<path fill="#FFFFFF" d="M137.983,32.922c-1.09,0-1.946-0.424-2.569-1.27c-0.622-0.848-0.934-2.021-0.934-3.52
		c0-1.522,0.317-2.708,0.95-3.558c0.634-0.85,1.507-1.274,2.619-1.274c1.167,0,2.059,0.454,2.673,1.361h0.083
		c-0.127-0.691-0.191-1.309-0.191-1.851V19.84h2.54v12.916h-1.942l-0.49-1.203h-0.108C140.039,32.465,139.162,32.922,137.983,32.922
		z M138.871,30.904c0.647,0,1.122-0.188,1.423-0.564c0.302-0.376,0.466-1.015,0.494-1.917v-0.274c0-0.996-0.153-1.709-0.461-2.141
		c-0.307-0.432-0.806-0.648-1.498-0.648c-0.564,0-1.003,0.24-1.315,0.719c-0.313,0.479-0.469,1.174-0.469,2.088
		c0,0.912,0.158,1.598,0.473,2.054C137.834,30.677,138.285,30.904,138.871,30.904z"/>
	<path fill="#FFFFFF" d="M147.484,32.756h-2.532V19.84h2.532V32.756z"/>
	<path fill="#FFFFFF" d="M147.962,23.476h2.772l1.751,5.222c0.149,0.453,0.252,0.99,0.307,1.609h0.05
		c0.061-0.569,0.18-1.106,0.357-1.609l1.718-5.222h2.714l-3.926,10.468c-0.36,0.968-0.873,1.693-1.54,2.174
		c-0.667,0.482-1.445,0.723-2.336,0.723c-0.437,0-0.866-0.047-1.287-0.141v-2.01c0.304,0.072,0.636,0.108,0.996,0.108
		c0.448,0,0.84-0.137,1.175-0.411c0.334-0.273,0.596-0.688,0.784-1.24l0.149-0.457L147.962,23.476z"/>
	<path fill="#FFFFFF" d="M170.244,32.756h-2.532v-5.42c0-1.34-0.498-2.01-1.494-2.01c-0.708,0-1.22,0.241-1.536,0.723
		s-0.473,1.262-0.473,2.341v4.366h-2.532V19.84h2.532v2.631c0,0.205-0.02,0.687-0.058,1.445l-0.058,0.746h0.133
		c0.564-0.907,1.461-1.361,2.689-1.361c1.09,0,1.917,0.294,2.482,0.881c0.564,0.586,0.847,1.428,0.847,2.523V32.756z"/>
	<path fill="#FFFFFF" d="M180.433,28.1c0,1.51-0.398,2.691-1.195,3.544s-1.906,1.278-3.329,1.278c-0.891,0-1.677-0.195-2.357-0.585
		c-0.681-0.391-1.204-0.95-1.569-1.681s-0.548-1.583-0.548-2.557c0-1.517,0.396-2.695,1.187-3.537
		c0.792-0.841,1.904-1.262,3.337-1.262c0.891,0,1.677,0.194,2.357,0.582c0.681,0.387,1.204,0.943,1.569,1.668
		S180.433,27.125,180.433,28.1z M174.017,28.1c0,0.918,0.151,1.612,0.453,2.083c0.301,0.471,0.792,0.706,1.473,0.706
		c0.675,0,1.161-0.234,1.457-0.702c0.296-0.468,0.444-1.163,0.444-2.087c0-0.919-0.149-1.608-0.448-2.067s-0.789-0.688-1.469-0.688
		c-0.675,0-1.162,0.228-1.461,0.685C174.166,26.484,174.017,27.175,174.017,28.1z"/>
	<path fill="#FFFFFF" d="M188.15,30c0,0.952-0.331,1.677-0.992,2.175c-0.661,0.498-1.65,0.747-2.967,0.747
		c-0.675,0-1.25-0.046-1.727-0.137c-0.476-0.092-0.921-0.226-1.336-0.402v-2.092c0.47,0.221,1,0.406,1.59,0.556
		c0.589,0.149,1.108,0.224,1.556,0.224c0.918,0,1.378-0.266,1.378-0.797c0-0.199-0.061-0.36-0.183-0.485
		c-0.122-0.124-0.332-0.266-0.631-0.423c-0.299-0.158-0.697-0.342-1.195-0.553c-0.714-0.299-1.238-0.575-1.573-0.83
		c-0.335-0.254-0.579-0.546-0.73-0.875c-0.152-0.329-0.229-0.734-0.229-1.217c0-0.824,0.319-1.462,0.959-1.913
		c0.639-0.451,1.545-0.677,2.718-0.677c1.118,0,2.205,0.244,3.262,0.73l-0.764,1.826c-0.465-0.199-0.899-0.362-1.303-0.489
		s-0.816-0.19-1.237-0.19c-0.747,0-1.121,0.201-1.121,0.605c0,0.227,0.121,0.424,0.361,0.59c0.241,0.166,0.768,0.412,1.582,0.738
		c0.725,0.293,1.256,0.567,1.594,0.822c0.337,0.254,0.586,0.547,0.747,0.879S188.15,29.541,188.15,30z"/>
	<path fill="#FFFFFF" d="M193.185,30.904c0.443,0,0.974-0.097,1.594-0.29v1.884c-0.631,0.283-1.406,0.424-2.324,0.424
		c-1.013,0-1.75-0.256-2.212-0.768c-0.462-0.512-0.693-1.28-0.693-2.304v-4.474h-1.212v-1.071l1.395-0.847l0.73-1.959h1.619v1.976
		h2.598v1.901h-2.598v4.474c0,0.359,0.101,0.625,0.303,0.797C192.586,30.819,192.853,30.904,193.185,30.904z"/>
	<path fill="#FFFFFF" d="M200.005,32.922c-1.494,0-2.662-0.412-3.503-1.236c-0.841-0.825-1.262-1.992-1.262-3.504
		c0-1.555,0.389-2.757,1.166-3.606c0.778-0.85,1.853-1.274,3.225-1.274c1.312,0,2.333,0.374,3.063,1.121s1.096,1.779,1.096,3.096
		v1.229h-5.985c0.028,0.72,0.241,1.281,0.639,1.686s0.958,0.605,1.677,0.605c0.559,0,1.087-0.058,1.585-0.174
		s1.018-0.302,1.561-0.557v1.959c-0.443,0.222-0.916,0.387-1.419,0.494C201.344,32.868,200.73,32.922,200.005,32.922z
		 M199.648,25.103c-0.537,0-0.958,0.17-1.262,0.511c-0.304,0.34-0.479,0.823-0.523,1.448h3.553c-0.011-0.625-0.174-1.108-0.49-1.448
		C200.611,25.272,200.184,25.103,199.648,25.103z"/>
	<path fill="#FFFFFF" d="M207.938,32.922c-1.09,0-1.946-0.424-2.569-1.27c-0.622-0.848-0.934-2.021-0.934-3.52
		c0-1.522,0.317-2.708,0.95-3.558c0.634-0.85,1.507-1.274,2.619-1.274c1.167,0,2.059,0.454,2.673,1.361h0.083
		c-0.127-0.691-0.191-1.309-0.191-1.851V19.84h2.54v12.916h-1.942l-0.49-1.203h-0.108C209.994,32.465,209.117,32.922,207.938,32.922
		z M208.826,30.904c0.647,0,1.122-0.188,1.423-0.564c0.302-0.376,0.466-1.015,0.494-1.917v-0.274c0-0.996-0.153-1.709-0.461-2.141
		c-0.307-0.432-0.806-0.648-1.498-0.648c-0.564,0-1.003,0.24-1.315,0.719c-0.313,0.479-0.469,1.174-0.469,2.088
		c0,0.912,0.158,1.598,0.473,2.054C207.788,30.677,208.24,30.904,208.826,30.904z"/>
	<path fill="#FFFFFF" d="M223.636,23.301c1.096,0,1.953,0.428,2.573,1.283c0.62,0.854,0.93,2.026,0.93,3.516
		c0,1.532-0.319,2.72-0.959,3.561c-0.639,0.841-1.509,1.262-2.61,1.262c-1.09,0-1.945-0.396-2.565-1.188h-0.174l-0.424,1.021h-1.934
		V19.84h2.531v3.005c0,0.382-0.033,0.993-0.1,1.835h0.1C221.597,23.761,222.474,23.301,223.636,23.301z M222.823,25.326
		c-0.625,0-1.082,0.192-1.369,0.577c-0.288,0.385-0.438,1.02-0.449,1.905v0.273c0,0.996,0.148,1.711,0.444,2.143
		s0.766,0.646,1.407,0.646c0.521,0,0.934-0.239,1.241-0.718c0.307-0.479,0.46-1.175,0.46-2.087c0-0.914-0.154-1.599-0.465-2.055
		C223.783,25.555,223.36,25.326,222.823,25.326z"/>
	<path fill="#FFFFFF" d="M227.053,23.476h2.772l1.751,5.222c0.15,0.453,0.252,0.99,0.308,1.609h0.05
		c0.061-0.569,0.18-1.106,0.357-1.609l1.718-5.222h2.714l-3.926,10.468c-0.359,0.968-0.873,1.693-1.54,2.174
		c-0.667,0.482-1.445,0.723-2.337,0.723c-0.437,0-0.865-0.047-1.286-0.141v-2.01c0.305,0.072,0.637,0.108,0.996,0.108
		c0.448,0,0.84-0.137,1.175-0.411c0.335-0.273,0.596-0.688,0.784-1.24l0.149-0.457L227.053,23.476z"/>
</g>
<g>
	<g>
		<g>
			<g>
				<path fill="#FFFFFF" d="M156.646,52.239c0,0.975-0.217,1.951-0.325,2.926c-0.217,1.409-0.325,2.709-0.325,4.118V76.73
					c0,2.059-0.65,4.118-1.842,5.96c-0.65,0.867-1.3,1.517-2.276,2.059c-0.867,0.65-1.842,0.867-3.034,0.867
					c-2.059,0-3.793-0.867-5.31-2.276c-0.759-0.65-1.409-1.409-2.059-2.276c-0.65-0.759-1.3-1.517-1.842-2.276
					c-1.084-1.517-3.034-4.118-6.069-7.694c-1.409-1.626-2.709-3.143-3.901-4.226c-1.192-1.192-2.059-1.734-2.709-1.842
					c0,3.034,0,6.177-0.108,9.211c0,1.084-0.108,2.276-0.108,3.468c0,0.975,0.108,1.951,0.433,2.926
					c0.325,0.975,0.433,1.951,0.433,2.926c0,0.65-0.217,1.3-0.65,1.842c-0.542,0.542-1.192,1.084-1.951,1.626
					c-1.626,0.975-3.034,1.517-4.335,1.517c-0.325-0.108-0.542-0.433-0.65-0.867c-0.325-0.975-0.542-2.059-0.759-3.143
					c-0.217-1.084-0.325-2.059-0.433-3.143c-0.433-3.468-0.867-6.935-1.3-10.403c-0.542-3.793-1.192-7.586-1.842-11.379
					c-0.217-1.084-0.433-2.167-0.65-3.359c-0.217-1.192-0.433-2.384-0.433-3.359c0-0.65,0.217-1.3,0.65-1.951
					c0.325-0.65,0.867-1.3,1.409-1.842c1.3-1.192,2.601-1.734,3.793-1.842c0.867,0,1.842,0.108,2.709,0.433
					c0.867,0.325,1.625,0.867,2.059,1.734c0.759,1.192,1.842,2.167,3.034,2.818c0.867,0.542,1.626,1.192,2.276,1.951
					c0.65,0.867,1.192,1.734,1.842,2.492c4.335,5.635,8.778,11.27,13.221,16.797c0.217-0.217,0.433-0.542,0.542-1.084
					c0.108-0.433,0.108-0.975,0.108-1.517c0-1.3,0-2.276,0-2.818V55.382c0.108-4.66,2.384-7.044,6.935-7.152
					c0.759,0,1.517,0.542,2.167,1.3C156.321,50.613,156.646,51.516,156.646,52.239z"/>
			</g>
			<g>
				<path fill="#FFFFFF" d="M188.939,61.45c0,3.901-1.084,7.802-3.143,11.92c-2.059,4.226-4.768,7.369-8.019,9.428
					c-0.975,0.542-2.709,1.409-5.202,2.492c-1.192,0.433-2.167,0.867-3.143,1.192c-0.975,0.433-1.625,0.65-2.059,0.65
					s-0.65-0.217-0.867-0.65c-0.217-0.325-0.325-0.65-0.433-0.975c-0.217-1.084-0.433-2.276-0.542-3.576
					c-0.217-1.192-0.325-2.384-0.433-3.576c-0.542-4.118-0.975-8.236-1.3-12.462c-0.433-3.901-0.759-7.802-0.975-11.704
					c-0.325-2.709-0.433-5.527-0.433-8.236c0-0.867,0.108-1.409,0.325-1.734s0.65-0.65,1.192-0.975
					c2.059-0.975,4.226-1.517,6.502-1.517c3.793,0,7.152,1.3,10.078,3.684c2.818,2.276,4.985,5.202,6.502,8.669
					C188.289,56.574,188.831,58.994,188.939,61.45z M180.27,62.353c-0.108-5.093-2.492-8.561-7.261-10.295
					c-0.542-0.217-0.975-0.325-1.517-0.433c-0.542,0-0.867,0.325-0.867,0.867c0,0.325,0,0.542,0.108,0.867
					c0.65,3.901,1.084,7.802,1.084,11.92c0.108,2.167,0.108,4.226,0.217,6.285c0,1.192-0.108,2.276-0.108,3.468
					c0,0.217,0,0.433,0.108,0.759c0,0.325,0.217,0.65,0.433,0.759c2.167-1.734,4.01-3.793,5.527-6.285
					C179.511,67.771,180.27,65.171,180.27,62.353z"/>
			</g>
			<g>
				<path fill="#FFFFFF" d="M233.153,47.182c-0.542-0.325-1.3-0.542-2.276-0.65c-1.951-0.217-3.468-0.325-4.443-0.325
					c-1.951,0-4.01,0.325-6.069,0.975c-2.059,0.65-4.118,1.084-6.177,1.517c-0.325,0-0.65,0.108-0.867,0.217
					c-0.217,0-0.542,0.217-0.65,0.433c-0.325,0.325-0.542,0.867-0.542,1.626c0,0.542,0,1.084,0.108,1.625
					c-0.108,6.827-0.433,13.546-1.084,20.265c-0.217,2.492-0.325,4.985-0.325,7.477c0,0.975,0.108,1.951,0.325,2.926
					s0.65,1.842,1.409,2.601c1.084,0.975,2.709,1.951,4.877,2.926c1.084,0.433,2.059,0.867,3.143,1.084
					c0.975,0.217,1.734,0.433,2.384,0.433c2.059,0,3.576-0.759,4.768-2.059s1.734-2.926,1.734-4.985c0-0.65,0-1.084-0.108-1.409
					c-0.108-0.217-0.433-0.325-1.084-0.325c-3.034,0-5.418-0.542-7.152-1.842c-1.842-1.192-2.818-3.468-2.818-6.719
					c0-1.084,0.108-2.167,0.217-3.143h5.527c0.759,0,1.734-0.325,2.818-0.867c0.542-0.217,0.975-0.542,1.3-0.975
					c0.433-0.542,0.542-1.192,0.867-1.734c0.325-0.542,0.325-0.867-0.217-1.517c-0.433-0.433-0.759-0.433-1.3-0.542
					c-1.192,0-2.167-0.108-3.143-0.108c-1.734,0-3.576,0-5.418,0.108c0.108-4.01,0.217-7.911,0.217-11.812
					c0.433-0.108,0.975-0.108,1.409-0.108c1.192,0,2.384,0.108,3.576,0.217c1.192,0.217,2.384,0.325,3.576,0.325
					c0.325,0,0.759,0,1.192-0.108s0.759-0.217,0.975-0.325l4.01-3.143c0.217-0.217,0.325-0.542,0.325-0.867
					C234.128,47.904,233.803,47.507,233.153,47.182z"/>
			</g>
			<g>
				<g>
					<path fill="#FFFFFF" d="M203.677,73.84c-0.108,1.625-1.734,6.069-4.443,5.31c-2.384-0.65-3.684-3.901-3.901-5.96
						c-0.542-4.877,0.542-11.379,0.325-16.147c-0.433-3.901-0.542-7.694-0.217-11.595c0.108-1.192,0.542-1.951,1.517-2.384
						c0.867-0.542,1.734-0.65,2.709-0.65c0.975,0.108,3.359,0.542,3.793,1.192c0.433,0.65,0.542,1.517,0.433,2.601
						c-0.217,2.818-0.433,5.635-0.65,8.453c-0.108,2.167-0.217,4.335-0.217,6.61c0.108,1.409,0.217,3.034,0.542,4.66
						C203.677,67.771,203.786,72.431,203.677,73.84z M204.869,87.603c-0.108,1.192-0.759,2.276-1.626,3.034
						c-0.975,0.759-3.684,1.084-4.985,1.084c-1.084-0.217-1.734-0.759-1.842-1.951c-0.108-0.975-0.217-1.951,0-2.926
						c0.108-1.084,0.542-2.059,1.3-2.818c0.759-0.65,3.251-0.975,4.335-0.867s1.842,0.65,2.276,1.517
						C204.761,85.544,204.978,86.519,204.869,87.603z"/>
				</g>
			</g>
			<g>
				<g>
					<path fill="#FFFFFF" d="M99.753,61.92c0.108-1.625,0.108-6.394,1.842-6.935c3.359-0.975,6.285,3.793,6.502,5.852
						c0.542,4.877-0.542,11.379-0.325,16.147c0.433,3.901,0.542,7.694,0.217,11.595c-0.108,1.192-0.542,1.951-1.517,2.384
						c-0.867,0.542-3.359,0.65-4.335,0.65c-0.975-0.108-1.734-0.542-2.167-1.192c-0.433-0.65-0.542-1.517-0.433-2.601
						c0.217-2.818,0.433-5.635,0.65-8.453c0.108-2.167,0.217-4.335,0.217-6.61c-0.108-1.409-0.217-3.034-0.542-4.66
						C99.645,66.327,99.645,63.22,99.753,61.92z M98.561,46.532c0.108-1.192,0.759-2.276,1.625-3.034
						c0.975-0.759,2.059-1.084,3.359-1.084c1.084,0.217,3.359,0.759,3.468,1.951c0.108,0.975,0.217,1.951,0,2.926
						c-0.108,1.084-0.542,2.059-1.3,2.818c-0.759,0.65-3.251,0.975-4.335,0.867c-1.084-0.108-1.842-0.65-2.276-1.517
						C98.67,48.591,98.453,47.615,98.561,46.532z"/>
				</g>
			</g>
		</g>
		<g>
			<g>
				<path fill="#FFFFFF" d="M138.549,112.924c0,1.517-0.108,3.034-0.325,4.768c-0.217,1.734-0.759,3.251-1.409,4.768
					c-0.65,1.517-1.517,2.709-2.709,3.576c-1.192,0.975-2.709,1.517-4.66,1.517c-4.01,0-6.827-1.192-8.236-3.576
					c-1.409-2.276-2.167-5.31-2.059-9.103c0-2.709,0.325-5.418,1.192-8.019c0.867-2.601,2.492-4.66,4.876-6.069
					c1.409-0.867,2.818-1.192,4.443-1.192c1.517,0,2.818,0.433,4.01,1.409c1.084,0.867,1.951,2.059,2.709,3.468
					C137.79,107.325,138.549,110.215,138.549,112.924z M131.938,116.428c0-1.084-0.217-2.167-0.433-3.251
					c-0.108-0.759-0.542-2.167-1.084-4.335c-0.217-0.975-0.542-1.734-0.867-2.492c-0.325-0.65-0.65-0.975-0.867-0.975
					c-0.759,0-1.3,0.325-1.734,0.759c-0.433,0.542-0.759,1.084-0.867,1.951c-0.325,1.734-0.433,3.143-0.433,4.335
					c0,0.759,0.108,1.625,0.217,2.601c0.108,1.084,0.325,2.167,0.65,3.143c0.325,0.975,0.759,1.951,1.409,2.601
					c0.65,0.759,1.517,1.192,2.492,1.192c0.325,0,0.65-0.217,0.867-0.759s0.325-1.084,0.542-1.734
					C131.83,118.054,131.938,117.078,131.938,116.428z"/>
			</g>
			<g>
				<path fill="#FFFFFF" d="M142.342,107.434c0-0.975,0.325-1.951,1.084-2.926c0.65-1.084,1.3-1.951,1.951-2.709
					c0.542-0.65,1.3-1.626,2.384-2.818c0.542-0.542,0.975-0.975,1.517-1.3c1.084-0.759,3.034-0.759,3.576,0.65
					c0.217,0.433,0.433,0.759,0.433,0.975c0,0.433-0.325,0.975-0.867,1.517c-0.542,0.542-1.084,1.192-1.734,1.842
					c-0.759,0.65-1.3,1.409-1.842,2.167c-0.433,0.65-0.759,1.409-0.759,2.167c0,0.65,0.325,1.409,0.975,2.384
					c0.65,0.867,1.517,1.734,2.384,2.818c0.867,1.084,1.625,2.167,2.276,3.359c0.759,1.192,1.084,2.492,1.084,3.793
					c0,2.276-0.867,4.66-2.492,7.044c-0.759,1.192-1.626,2.167-2.709,2.818c-0.975,0.759-2.059,1.084-3.143,1.084
					c-0.217,0-0.542-0.108-0.759-0.433c-0.217-0.217-0.542-0.542-0.759-0.975c-0.433-0.867-0.759-1.517-0.759-2.059
					c0-0.217,0.108-0.433,0.217-0.65c0.217-0.325,0.433-0.542,0.65-0.542c0.325,0,0.65-0.217,0.975-0.542
					c0.325-0.433,0.65-0.867,0.975-1.517c0.65-1.3,1.084-2.276,1.3-2.818c0.217-0.867,0.433-1.734,0.433-2.601
					c0-1.084-0.325-2.167-0.975-3.034c-0.65-0.867-1.3-1.734-2.167-2.601c-0.867-0.759-1.517-1.626-2.167-2.384
					C142.667,109.384,142.342,108.409,142.342,107.434z"/>
			</g>
			<g>
				<path fill="#FFFFFF" d="M179.186,101.799c0,0.975-0.217,1.734-0.65,2.276c-0.433,0.542-0.975,0.975-1.734,1.084
					c-0.759,0.217-1.517,0.325-2.384,0.325c-0.867,0.108-1.626,0.108-2.384,0.108c-0.65,0-1.409,0-2.059,0
					c-0.108,1.084-0.217,2.059-0.433,3.143c-0.217,1.084-0.325,2.167-0.433,3.251l-0.217,9.103c0,0.65,0,1.409,0,2.276
					c0,0.867-0.108,1.842-0.325,2.601c-0.217,0.867-0.542,1.517-0.975,2.059c-0.433,0.542-1.192,0.867-2.167,0.975
					c-0.217,0.108-0.433,0.108-0.65,0.108c-0.325,0-0.542-0.217-0.65-0.65c-0.108-0.325-0.217-0.65-0.217-0.867
					c0-1.626,0.108-3.251,0.325-4.877c0.325-3.901,0.542-7.802,0.542-11.595c0-2.059-0.217-4.118-0.542-6.177
					c-0.542-0.108-1.3-0.325-2.167-0.542s-1.842-0.433-2.709-0.759s-1.626-0.867-2.276-1.409c-0.65-0.542-0.975-1.192-0.975-1.842
					c0-0.325,0.108-0.759,0.433-0.975c0.217-0.325,0.542-0.433,0.867-0.433h1.842c0.108-0.108,0.325-0.217,0.65-0.325
					c0.325-0.108,0.65-0.108,0.975-0.108c0.759,0,1.3,0,1.626,0c2.384,0,4.768,0.217,7.261,0.433
					c1.409,0.108,2.818,0.217,4.226,0.433c0.65,0.325,1.192,0.433,1.842,0.542c0.65-0.108,1.192-0.108,1.842-0.217
					c0.542,0,0.867,0.217,1.192,0.65C179.078,100.823,179.186,101.257,179.186,101.799z"/>
			</g>
			<g>
				<path fill="#FFFFFF" d="M197.5,128.24c-0.433,0.217-0.867,0.325-1.517,0.433c-1.3,0.108-2.384,0.217-3.034,0.217
					c-1.3,0-2.709-0.217-4.118-0.65c-1.409-0.433-2.818-0.759-4.226-0.975c-0.217,0-0.433-0.108-0.542-0.108
					c-0.217,0-0.325-0.108-0.433-0.325c-0.217-0.217-0.325-0.542-0.325-1.192c0-0.325,0-0.759,0-1.192
					c-0.108-4.66-0.325-9.32-0.759-13.871c-0.108-1.734-0.217-3.468-0.217-5.093c0-0.65,0.108-1.3,0.217-2.059
					c0.217-0.65,0.433-1.3,0.975-1.842c0.759-0.65,1.842-1.3,3.359-1.951c0.759-0.325,1.409-0.542,2.167-0.759
					c0.65-0.217,1.192-0.325,1.626-0.325c1.409,0,2.492,0.542,3.251,1.409c0.759,0.867,1.192,2.059,1.192,3.468
					c0,0.433,0,0.759,0,0.975c-0.108,0.217-0.325,0.217-0.759,0.217c-2.059,0-3.684,0.433-4.876,1.3
					c-1.3,0.867-1.842,2.384-1.842,4.66c0,0.759,0,1.409,0.108,2.167h3.793c0.542,0,1.192,0.217,1.951,0.542
					c0.759,0.325,2.384,1.084,2.059,2.167c-0.108,0.325-0.325,0.65-0.65,0.759c-0.867,0.433-2.167,0.325-3.143,0.325
					c-1.192,0-2.492,0-3.684-0.108c0.108,2.709,0.108,5.418,0.108,8.128c0.325,0.108,0.65,0.108,0.975,0.108
					c0.867,0,1.626-0.108,2.492-0.217c0.867-0.217,1.625-0.217,2.492-0.217c0.217,0,0.433,0,0.759,0
					c0.325,0.108,0.542,0.108,0.65,0.217l2.818,2.167c0.108,0.217,0.217,0.433,0.217,0.65
					C198.15,127.698,197.934,127.987,197.5,128.24z"/>
			</g>
			<g>
				<path fill="#FFFFFF" d="M220.366,126.289c0,0.975-2.384,1.734-3.143,1.734c-0.325,0-0.759-0.217-1.084-0.433
					c-0.325-0.325-0.759-0.65-1.192-1.084c-0.867-0.975-1.626-2.059-2.384-3.143c-0.759-1.192-1.517-2.276-2.276-3.143
					c-0.759-0.867-1.409-1.409-1.951-1.409v6.827c0,0.217-0.108,0.65-0.433,1.192c-0.217,0.542-0.65,1.084-1.084,1.734
					c-0.433,0.542-0.867,1.084-1.3,1.517c-0.433,0.433-0.867,0.65-1.192,0.759c-2.167,0-3.251-1.192-3.251-3.468
					c0-1.084,0.108-2.167,0.325-3.251c0.217-1.626,0.217-3.143,0.217-4.66c0-4.118-0.217-8.236-0.542-12.245
					c-0.217-2.059-0.325-4.01-0.325-6.069c0-3.251,2.926-5.635,5.96-5.635c2.059,0,4.335,0.433,6.61,1.409
					c1.084,0.542,1.951,1.192,2.709,1.951c0.65,0.867,0.975,1.842,0.975,3.143c0,1.192-0.325,2.492-0.975,3.576
					c-0.65,1.192-1.3,2.276-2.167,3.251c-0.759,0.975-1.517,1.842-2.167,2.601c-0.65,0.759-0.975,1.3-0.975,1.734
					c0,0.108,0.217,0.325,0.542,0.65c0.325,0.325,0.759,0.65,1.192,0.975c0.975,0.759,1.734,1.3,2.167,1.625
					c0.759,0.65,1.517,1.409,2.167,2.167c0.65,0.65,1.084,1.409,1.409,2.167c0.325,0.759,0.542,1.626,0.867,2.492
					c0.217,0.325,0.433,0.867,0.65,1.517C220.149,125.386,220.366,125.928,220.366,126.289z M212.455,102.629
					c0-0.65-0.217-1.084-0.542-1.3c-0.325-0.217-0.759-0.217-1.3-0.217c-0.433,0-0.975,0.108-1.517,0.325s-1.084,0.433-1.517,0.65
					l0.217,8.453c0.433-0.217,0.975-0.65,1.517-1.3c0.542-0.65,1.084-1.409,1.517-2.167
					C211.913,105.158,212.455,103.713,212.455,102.629z"/>
			</g>
			<g>
				<path fill="#FFFFFF" d="M234.67,119.968c0,0.975-0.325,1.951-1.084,2.926c-0.65,1.084-1.3,1.951-1.951,2.709
					c-0.542,0.65-1.3,1.626-2.384,2.818c-0.542,0.542-0.975,0.975-1.517,1.409c-2.059,1.517-5.202-0.867-3.143-3.034
					c0.542-0.542,1.084-1.192,1.734-1.842c0.759-0.65,1.3-1.409,1.842-2.167c0.433-0.65,0.759-1.409,0.759-2.167
					c0-0.65-0.325-1.409-0.975-2.384c-0.65-0.867-1.517-1.734-2.384-2.818c-0.867-1.084-1.626-2.167-2.276-3.359
					c-0.759-1.192-1.084-2.492-1.084-3.793c0-2.276,0.867-4.66,2.492-7.044c0.759-1.192,1.625-2.167,2.709-2.818
					c0.975-0.759,2.059-1.084,3.143-1.084c0.217,0,0.542,0.108,0.759,0.433c0.217,0.217,0.542,0.542,0.759,0.975
					c0.433,0.867,0.759,1.517,0.759,2.059c0,0.867-1.084,1.192-1.626,1.626c-1.3,1.084-2.059,2.926-2.492,4.443
					c-0.217,0.867-0.433,1.734-0.433,2.601c0,1.084,0.325,2.167,0.975,3.034s1.3,1.734,2.167,2.601
					c0.867,0.759,1.517,1.625,2.167,2.384C234.345,118.054,234.67,118.884,234.67,119.968z"/>
			</g>
			<g>
				<path fill="#FFFFFF" d="M114.275,99.631c0.108-0.65,0-1.3-0.325-1.734c-0.325-0.433-1.951-0.759-2.601-0.759
					c-0.65-0.108-1.3,0.108-1.842,0.433c-0.65,0.325-0.975,0.867-0.975,1.517c-0.217,2.492-0.108,4.985,0.217,7.477
					c0.108,0.542,0,1.192,0,1.734c0,0.542,0,1.3-0.217,1.842c-0.217,0.433-0.975,0.542-1.517,0.65
					c-0.759,0.108-1.517,0.217-2.276,0.217c-0.759,0-1.409-0.108-1.409-0.867c0-0.108,0-0.325,0-0.433c0-2.818,0.217-5.743,0-8.561
					c0-0.108,0-0.217,0-0.433c-0.217-1.3-2.167-3.359-4.443-2.709c-1.192,0.325-1.192,3.468-1.3,4.443
					c-0.108,0.867,0,10.186,0.108,11.27c0.217,1.084,0.325,2.059,0.325,2.926c0,1.409,0,2.926-0.108,4.226
					c-0.108,1.842-0.217,3.684-0.433,5.418c-0.108,0.65,0,1.3,0.325,1.734c0.325,0.433,0.759,0.759,1.517,0.759
					c0.65,0.108,2.384-0.108,3.034-0.433c0.65-0.325,0.975-0.867,0.975-1.517c0.217-2.492,0.108-4.985-0.217-7.477
					c-0.108-0.433,0-0.867,0-1.3c0-0.325,0-0.759,0.108-1.084c0.217-0.325,0.542-0.433,0.975-0.542
					c0.433-0.108,0.867-0.217,1.3-0.217c0.65-0.108,1.409-0.108,2.167,0s0.975,0.433,0.975,1.084c-0.108,0.867,0,1.734-0.108,2.492
					c0,1.3,0,2.601,0,4.01c0,0.217,0,0.325,0,0.542c0.108,1.3,1.084,3.359,2.709,3.793c1.842,0.433,2.926-2.384,3.034-3.468
					c0.108-0.867,0-11.162-0.108-12.354c-0.217-1.084-0.325-2.059-0.325-2.926c0-1.409,0-2.926,0.108-4.226
					C113.95,103.171,114.058,101.365,114.275,99.631z"/>
			</g>
		</g>
	</g>
</g>
</svg>
