<?xml version="1.0" encoding="utf-8"?>
<!-- Generator: Adobe Illustrator 17.0.0, SVG Export Plug-In . SVG Version: 6.00 Build 0)  -->
<!DOCTYPE svg PUBLIC "-//W3C//DTD SVG 1.1//EN" "http://www.w3.org/Graphics/SVG/1.1/DTD/svg11.dtd">
<svg version="1.1" id="Layer_1" xmlns="http://www.w3.org/2000/svg" xmlns:xlink="http://www.w3.org/1999/xlink" x="0px" y="0px"
	 width="305.351px" height="93.986px" viewBox="0 0 305.351 93.986" enable-background="new 0 0 305.351 93.986"
	 xml:space="preserve">
<g>
	<path fill="#00B3C3" d="M305.351,80.295c0,7.562-6.13,13.692-13.692,13.692H13.692C6.13,93.986,0,87.856,0,80.295V13.692
		C0,6.13,6.13,0,13.692,0H291.66c7.562,0,13.692,6.13,13.692,13.692V80.295z"/>
</g>
<g>
	<g>
		<g>
			<path fill="#FFFFFF" d="M69.269,47.476c0,0.715-0.119,1.431-0.238,2.146c-0.238,1.073-0.238,2.027-0.238,3.1v13.235
				c0,1.55-0.477,3.1-1.431,4.531c-0.477,0.596-1.073,1.192-1.669,1.55c-0.715,0.477-1.431,0.715-2.265,0.715
				c-1.55,0-2.862-0.596-3.935-1.789c-0.596-0.477-1.073-1.073-1.55-1.669c-0.477-0.596-0.954-1.192-1.431-1.669
				c-0.835-1.192-2.265-3.1-4.531-5.723c-1.073-1.312-2.027-2.385-2.862-3.219c-0.954-0.835-1.55-1.312-2.027-1.431
				c0,2.265,0,4.65-0.119,6.916c0,0.835-0.119,1.669-0.119,2.623c0,0.715,0.119,1.431,0.358,2.146
				c0.238,0.715,0.358,1.431,0.358,2.265c0,0.477-0.119,0.954-0.477,1.431s-0.835,0.835-1.431,1.192
				c-1.192,0.715-2.265,1.073-3.219,1.073c-0.238-0.119-0.358-0.238-0.477-0.715c-0.238-0.715-0.477-1.55-0.596-2.385
				c-0.119-0.835-0.238-1.55-0.358-2.385c-0.358-2.623-0.596-5.246-0.954-7.87c-0.477-2.862-0.954-5.723-1.431-8.585
				c-0.119-0.835-0.358-1.669-0.477-2.504c-0.238-0.954-0.238-1.789-0.238-2.504c0-0.477,0.119-0.954,0.477-1.55
				c0.238-0.477,0.596-0.954,1.073-1.431c0.954-0.835,1.908-1.312,2.862-1.312c0.715,0,1.312,0.119,2.027,0.358
				c0.715,0.238,1.192,0.715,1.55,1.312c0.596,0.954,1.312,1.55,2.265,2.146c0.715,0.358,1.192,0.835,1.789,1.431
				c0.477,0.596,0.954,1.312,1.312,1.908c3.339,4.293,6.558,8.466,9.897,12.639c0.238-0.119,0.358-0.477,0.477-0.835
				c0.119-0.358,0.119-0.715,0.119-1.192c0-0.954,0-1.669,0-2.146v-9.539c0.119-3.577,1.789-5.366,5.246-5.366
				c0.596,0,1.192,0.358,1.55,1.073C69.031,46.283,69.269,46.88,69.269,47.476z"/>
		</g>
		<g>
			<path fill="#FFFFFF" d="M93.594,54.511c0,2.862-0.835,5.962-2.385,9.062s-3.577,5.485-6.081,7.035
				c-0.715,0.358-2.027,1.073-3.935,1.908c-0.835,0.358-1.669,0.715-2.385,0.954c-0.715,0.358-1.192,0.477-1.55,0.477
				c-0.358,0-0.477-0.119-0.596-0.477c-0.119-0.238-0.238-0.477-0.358-0.715c-0.238-0.835-0.358-1.789-0.358-2.623
				c-0.119-0.954-0.238-1.789-0.358-2.623c-0.358-3.1-0.715-6.2-0.954-9.3c-0.238-2.981-0.596-5.843-0.715-8.823
				c-0.238-2.027-0.358-4.173-0.358-6.2c0-0.596,0.119-1.073,0.238-1.312c0.238-0.238,0.477-0.477,0.954-0.715
				c1.55-0.715,3.219-1.073,4.889-1.073c2.862,0,5.366,0.954,7.631,2.742c2.146,1.789,3.816,3.935,4.889,6.558
				C93.117,50.814,93.594,52.603,93.594,54.511z M87.036,55.107c-0.119-3.816-1.908-6.439-5.485-7.75
				c-0.358-0.119-0.715-0.238-1.192-0.358c-0.358,0-0.596,0.238-0.596,0.596c0,0.238,0,0.477,0.119,0.596
				c0.477,2.981,0.835,5.962,0.835,8.943c0.119,1.669,0.119,3.219,0.119,4.769c0,0.835-0.119,1.789-0.119,2.623
				c0,0.119,0,0.358,0,0.596c0,0.238,0.119,0.477,0.358,0.596c1.669-1.312,2.981-2.862,4.173-4.769
				C86.439,59.161,87.036,57.253,87.036,55.107z"/>
		</g>
		<g>
			<path fill="#FFFFFF" d="M126.98,43.66c-0.477-0.238-0.954-0.358-1.669-0.477c-1.431-0.119-2.623-0.238-3.339-0.238
				c-1.431,0-2.981,0.238-4.531,0.715c-1.55,0.477-3.1,0.835-4.65,1.073c-0.238,0-0.477,0.119-0.596,0.119
				c-0.238,0-0.358,0.119-0.477,0.358c-0.238,0.238-0.358,0.596-0.358,1.312c0,0.358,0,0.835,0,1.312
				c-0.119,5.127-0.358,10.254-0.835,15.262c-0.119,1.908-0.238,3.816-0.238,5.604c0,0.715,0.119,1.431,0.238,2.265
				c0.238,0.715,0.477,1.431,1.073,2.027c0.835,0.715,2.027,1.431,3.696,2.146c0.835,0.358,1.55,0.596,2.385,0.835
				c0.715,0.238,1.312,0.358,1.789,0.358c1.55,0,2.742-0.596,3.577-1.55s1.312-2.266,1.312-3.816c0-0.477,0-0.835,0-1.073
				c-0.119-0.238-0.358-0.238-0.835-0.238c-2.265,0-4.054-0.477-5.366-1.431c-1.431-0.954-2.027-2.623-2.027-5.127
				c0-0.835,0-1.55,0.119-2.385h4.173c0.596,0,1.312-0.238,2.146-0.596c0.358-0.238,0.715-0.477,0.954-0.715
				c0.358-0.358,0.358-0.835,0.596-1.312c0.238-0.477,0.238-0.715-0.119-1.073c-0.238-0.358-0.596-0.358-0.954-0.358
				c-0.835,0-1.669,0-2.385,0c-1.312,0-2.742,0-4.054,0.119c0.119-2.981,0.119-5.962,0.119-8.943
				c0.358-0.119,0.715-0.119,1.073-0.119c0.954,0,1.789,0.119,2.742,0.238c0.954,0.238,1.789,0.238,2.742,0.238
				c0.238,0,0.477,0,0.835,0c0.358-0.119,0.596-0.119,0.715-0.238l3.1-2.385c0.119-0.238,0.238-0.477,0.238-0.715
				C127.576,44.256,127.337,43.899,126.98,43.66z"/>
		</g>
		<g>
			<path fill="#FFFFFF" d="M190.414,58.684c0,1.669-0.119,3.339-0.358,5.246c-0.238,1.908-0.835,3.577-1.55,5.246
				c-0.715,1.669-1.669,2.981-2.981,3.935c-1.312,1.073-2.981,1.669-5.127,1.669c-4.412,0-7.512-1.312-9.062-3.935
				c-1.55-2.504-2.385-5.843-2.266-10.016c0-2.981,0.358-5.962,1.312-8.824s2.742-5.127,5.366-6.677
				c1.55-0.954,3.1-1.312,4.889-1.312c1.669,0,3.1,0.477,4.412,1.55c1.192,0.954,2.146,2.265,2.981,3.816
				C189.698,52.484,190.414,55.703,190.414,58.684z M183.14,62.5c0-1.192-0.238-2.385-0.477-3.577
				c-0.119-0.835-0.596-2.385-1.192-4.769c-0.238-1.073-0.596-1.908-0.954-2.742c-0.358-0.715-0.715-1.073-0.954-1.073
				c-0.835,0-1.431,0.358-1.908,0.835c-0.477,0.596-0.835,1.192-0.954,2.146c-0.358,1.908-0.477,3.458-0.477,4.769
				c0,0.835,0.119,1.789,0.238,2.862c0.119,1.192,0.358,2.385,0.715,3.458c0.358,1.073,0.835,2.146,1.55,2.862
				c0.715,0.835,1.669,1.312,2.742,1.312c0.358,0,0.715-0.238,0.954-0.835c0.238-0.596,0.358-1.192,0.596-1.908
				C183.14,64.288,183.14,63.215,183.14,62.5z"/>
		</g>
		<g>
			<path fill="#FFFFFF" d="M194.587,52.603c0-1.073,0.358-2.146,1.192-3.219c0.715-1.192,1.431-2.146,2.146-2.981
				c0.596-0.715,1.431-1.789,2.623-3.1c0.596-0.596,1.073-1.073,1.669-1.431c1.192-0.835,3.339-0.835,3.935,0.715
				c0.238,0.477,0.477,0.835,0.477,1.073c0,0.477-0.358,1.073-0.954,1.669c-0.596,0.596-1.192,1.312-1.908,2.027
				c-0.835,0.715-1.431,1.55-2.027,2.385c-0.477,0.715-0.835,1.55-0.835,2.385c0,0.715,0.358,1.55,1.073,2.623
				c0.715,0.954,1.669,1.908,2.623,3.1c0.954,1.192,1.789,2.385,2.504,3.696c0.835,1.312,1.192,2.742,1.192,4.173
				c0,2.504-0.954,5.127-2.742,7.75c-0.835,1.312-1.789,2.385-2.981,3.1c-1.073,0.835-2.266,1.192-3.458,1.192
				c-0.238,0-0.596-0.119-0.835-0.477c-0.238-0.238-0.596-0.596-0.835-1.073c-0.477-0.954-0.835-1.669-0.835-2.266
				c0-0.238,0.119-0.477,0.238-0.715c0.238-0.358,0.477-0.596,0.715-0.596c0.358,0,0.715-0.238,1.073-0.596
				c0.358-0.477,0.715-0.954,1.073-1.669c0.715-1.431,1.192-2.504,1.431-3.1c0.238-0.954,0.477-1.908,0.477-2.862
				c0-1.192-0.358-2.385-1.073-3.339c-0.715-0.954-1.431-1.908-2.385-2.862c-0.954-0.835-1.669-1.789-2.385-2.623
				C194.945,54.749,194.587,53.676,194.587,52.603z"/>
		</g>
		<g>
			<path fill="#FFFFFF" d="M235.127,46.403c0,1.073-0.238,1.908-0.715,2.504s-1.073,1.073-1.908,1.192
				c-0.835,0.238-1.669,0.358-2.623,0.358c-0.954,0.119-1.789,0.119-2.623,0.119c-0.715,0-1.55,0-2.266,0
				c-0.119,1.192-0.238,2.265-0.477,3.458c-0.238,1.192-0.358,2.385-0.477,3.577L223.8,67.627c0,0.715,0,1.55,0,2.504
				c0,0.954-0.119,2.027-0.358,2.862c-0.238,0.954-0.596,1.669-1.073,2.265c-0.477,0.596-1.312,0.954-2.385,1.073
				c-0.238,0.119-0.477,0.119-0.715,0.119c-0.358,0-0.596-0.238-0.715-0.715c-0.119-0.358-0.238-0.715-0.238-0.954
				c0-1.789,0.119-3.577,0.358-5.366c0.358-4.293,0.596-8.585,0.596-12.758c0-2.265-0.238-4.531-0.596-6.796
				c-0.596-0.119-1.431-0.358-2.385-0.596s-2.027-0.477-2.981-0.835c-0.954-0.358-1.789-0.954-2.504-1.55
				c-0.715-0.596-1.073-1.312-1.073-2.027c0-0.358,0.119-0.835,0.477-1.073c0.238-0.358,0.596-0.477,0.954-0.477h2.027
				c0.119-0.119,0.358-0.238,0.715-0.358s0.715-0.119,1.073-0.119c0.835,0,1.431,0,1.789,0c2.623,0,5.246,0.238,7.989,0.477
				c1.55,0.119,3.1,0.238,4.65,0.477c0.715,0.358,1.312,0.477,2.027,0.596c0.715-0.119,1.312-0.119,2.027-0.238
				c0.596,0,0.954,0.238,1.312,0.715C235.008,45.33,235.127,45.806,235.127,46.403z"/>
		</g>
		<g>
			<path fill="#FFFFFF" d="M255.278,75.496c-0.477,0.238-0.954,0.358-1.669,0.477c-1.431,0.119-2.623,0.238-3.339,0.238
				c-1.431,0-2.981-0.238-4.531-0.715c-1.55-0.477-3.1-0.835-4.65-1.073c-0.238,0-0.477-0.119-0.596-0.119
				c-0.238,0-0.358-0.119-0.477-0.358c-0.238-0.238-0.358-0.596-0.358-1.312c0-0.358,0-0.835,0-1.312
				c-0.119-5.127-0.358-10.254-0.835-15.262c-0.119-1.908-0.238-3.816-0.238-5.604c0-0.715,0.119-1.431,0.238-2.265
				c0.238-0.715,0.477-1.431,1.073-2.027c0.835-0.715,2.027-1.431,3.696-2.146c0.835-0.358,1.55-0.596,2.385-0.835
				c0.715-0.238,1.312-0.358,1.789-0.358c1.55,0,2.742,0.596,3.577,1.55c0.835,0.954,1.312,2.265,1.312,3.816
				c0,0.477,0,0.835,0,1.073c-0.119,0.238-0.358,0.238-0.835,0.238c-2.266,0-4.054,0.477-5.366,1.431
				c-1.431,0.954-2.027,2.623-2.027,5.127c0,0.835,0,1.55,0.119,2.385h4.173c0.596,0,1.312,0.238,2.146,0.596
				c0.835,0.358,2.623,1.192,2.266,2.385c-0.119,0.358-0.358,0.715-0.715,0.835c-0.954,0.477-2.385,0.358-3.458,0.358
				c-1.312,0-2.742,0-4.054-0.119c0.119,2.981,0.119,5.962,0.119,8.943c0.358,0.119,0.715,0.119,1.073,0.119
				c0.954,0,1.789-0.119,2.742-0.238c0.954-0.238,1.789-0.238,2.742-0.238c0.238,0,0.477,0,0.835,0
				c0.358,0.119,0.596,0.119,0.715,0.238l3.1,2.385c0.119,0.238,0.238,0.477,0.238,0.715
				C255.994,74.9,255.755,75.258,255.278,75.496z"/>
		</g>
		<g>
			<path fill="#FFFFFF" d="M280.437,73.35c0,1.073-2.623,1.908-3.458,1.908c-0.358,0-0.835-0.238-1.192-0.477
				c-0.358-0.358-0.835-0.715-1.312-1.192c-0.954-1.073-1.789-2.265-2.623-3.458c-0.835-1.312-1.669-2.504-2.504-3.458
				c-0.835-0.954-1.55-1.55-2.146-1.55v7.512c0,0.238-0.119,0.715-0.477,1.312c-0.238,0.596-0.715,1.192-1.192,1.908
				c-0.477,0.596-0.954,1.192-1.431,1.669s-0.954,0.715-1.312,0.835c-2.385,0-3.577-1.312-3.577-3.816
				c0-1.192,0.119-2.385,0.358-3.577c0.238-1.789,0.238-3.458,0.238-5.127c0-4.531-0.238-9.062-0.596-13.474
				c-0.238-2.265-0.358-4.412-0.358-6.677c0-3.577,3.219-6.2,6.558-6.2c2.266,0,4.769,0.477,7.273,1.55
				c1.192,0.596,2.146,1.312,2.981,2.146c0.715,0.954,1.073,2.027,1.073,3.458c0,1.312-0.358,2.742-1.073,3.935
				c-0.715,1.312-1.431,2.504-2.385,3.577c-0.835,1.073-1.669,2.027-2.385,2.862s-1.073,1.431-1.073,1.908
				c0,0.119,0.238,0.358,0.596,0.715c0.358,0.358,0.835,0.715,1.312,1.073c1.073,0.835,1.908,1.431,2.385,1.789
				c0.835,0.715,1.669,1.55,2.385,2.385c0.715,0.715,1.192,1.55,1.55,2.385c0.358,0.835,0.596,1.789,0.954,2.742
				c0.238,0.358,0.477,0.954,0.715,1.669C280.318,72.396,280.437,72.992,280.437,73.35z M271.852,47.357
				c0-0.715-0.238-1.192-0.596-1.431c-0.358-0.238-0.835-0.238-1.431-0.238c-0.477,0-1.073,0.119-1.669,0.358
				s-1.192,0.477-1.669,0.715l0.238,9.3c0.477-0.238,1.073-0.715,1.669-1.431s1.192-1.55,1.669-2.385
				C271.137,50.099,271.733,48.549,271.852,47.357z"/>
		</g>
		<g>
			<path fill="#FFFFFF" d="M296.176,66.434c0,1.073-0.358,2.146-1.192,3.219c-0.715,1.192-1.431,2.146-2.146,2.981
				c-0.596,0.715-1.431,1.789-2.623,3.1c-0.596,0.596-1.073,1.073-1.669,1.55c-2.265,1.669-5.723-0.954-3.458-3.339
				c0.596-0.596,1.192-1.312,1.908-2.027c0.835-0.715,1.431-1.55,2.027-2.385c0.477-0.715,0.835-1.55,0.835-2.385
				c0-0.715-0.358-1.55-1.073-2.623c-0.715-0.954-1.669-1.908-2.623-3.1c-0.954-1.192-1.789-2.385-2.504-3.696
				c-0.835-1.312-1.192-2.742-1.192-4.173c0-2.504,0.954-5.127,2.742-7.75c0.835-1.312,1.789-2.385,2.981-3.1
				c1.073-0.835,2.265-1.192,3.458-1.192c0.238,0,0.596,0.119,0.835,0.477c0.238,0.238,0.596,0.596,0.835,1.073
				c0.477,0.954,0.835,1.669,0.835,2.265c0,0.954-1.192,1.312-1.789,1.789c-1.431,1.192-2.266,3.219-2.742,4.889
				c-0.238,0.954-0.477,1.908-0.477,2.862c0,1.192,0.358,2.385,1.073,3.339c0.715,0.954,1.431,1.908,2.385,2.862
				c0.954,0.835,1.669,1.789,2.385,2.623C295.819,64.288,296.176,65.242,296.176,66.434z"/>
		</g>
		<g>
			<g>
				<path fill="#FFFFFF" d="M104.683,63.811c-0.119,1.312-1.312,4.531-3.339,4.054c-1.789-0.477-2.862-2.981-2.981-4.412
					c-0.477-3.696,0.477-8.585,0.238-12.162c-0.358-2.862-0.477-5.843-0.238-8.704c0.119-0.835,0.477-1.431,1.073-1.789
					c0.596-0.358,1.312-0.477,2.027-0.477c0.715,0.119,2.504,0.358,2.862,0.954c0.238,0.477,0.358,1.192,0.358,2.027
					c-0.238,2.146-0.358,4.293-0.477,6.32c-0.119,1.669-0.119,3.339-0.119,5.008c0,1.073,0.119,2.265,0.358,3.458
					C104.683,59.161,104.802,62.738,104.683,63.811z M105.517,74.185c-0.119,0.954-0.477,1.669-1.192,2.266
					s-2.862,0.835-3.696,0.835c-0.835-0.119-1.312-0.596-1.312-1.431c-0.119-0.715-0.119-1.55,0-2.265
					c0.119-0.835,0.358-1.55,1.073-2.027c0.596-0.477,2.504-0.715,3.219-0.715c0.835,0.119,1.431,0.477,1.789,1.073
					C105.517,72.635,105.636,73.35,105.517,74.185z"/>
			</g>
		</g>
		<g>
			<g>
				<path fill="#FFFFFF" d="M26.344,54.749c0.119-1.192,0.119-4.769,1.431-5.246c2.504-0.715,4.769,2.862,4.889,4.412
					c0.477,3.696-0.477,8.585-0.238,12.162c0.358,2.862,0.477,5.843,0.238,8.704c-0.119,0.835-0.477,1.431-1.073,1.789
					c-0.596,0.358-2.504,0.477-3.339,0.477c-0.715-0.119-1.312-0.358-1.669-0.954c-0.238-0.477-0.358-1.192-0.358-2.027
					c0.238-2.146,0.358-4.293,0.477-6.32c0.119-1.669,0.119-3.339,0.119-5.008c0-1.073-0.119-2.265-0.358-3.458
					C26.344,58.207,26.344,55.822,26.344,54.749z M25.509,43.183c0.119-0.954,0.477-1.669,1.192-2.265
					c0.715-0.596,1.55-0.835,2.504-0.835c0.835,0.119,2.504,0.596,2.623,1.431c0.119,0.715,0.119,1.55,0,2.265
					c-0.119,0.835-0.358,1.55-1.073,2.027c-0.596,0.477-2.504,0.715-3.219,0.715c-0.835-0.119-1.431-0.477-1.789-1.073
					C25.509,44.733,25.39,44.018,25.509,43.183z"/>
			</g>
		</g>
		<g>
			<path fill="#FFFFFF" d="M163.705,44.018c0.119-0.715,0-1.431-0.358-1.908c-0.358-0.477-2.146-0.835-2.862-0.835
				c-0.715-0.119-1.431,0.119-2.027,0.477c-0.715,0.358-1.073,0.954-1.073,1.669c-0.238,2.742-0.119,5.485,0.238,8.227
				c0.119,0.596,0,1.312,0,1.908c0,0.596,0,1.431-0.238,2.027c-0.238,0.477-1.073,0.596-1.669,0.715
				c-0.835,0.119-1.669,0.238-2.504,0.238c-0.835,0-1.55-0.119-1.55-0.954c0-0.119,0-0.358,0-0.477c0-3.1,0.238-6.32,0-9.42
				c0-0.119,0-0.238,0-0.477c-0.238-1.431-2.385-3.696-4.889-2.981c-1.312,0.358-1.312,3.816-1.431,4.889
				c-0.119,0.954,0,11.208,0.119,12.401c0.238,1.192,0.358,2.265,0.358,3.219c0,1.55,0,3.219-0.119,4.65
				c-0.119,2.027-0.238,4.054-0.477,5.962c-0.119,0.715,0,1.431,0.358,1.908c0.358,0.477,0.835,0.835,1.669,0.835
				c0.715,0.119,2.623-0.119,3.339-0.477c0.715-0.358,1.073-0.954,1.073-1.669c0.238-2.742,0.119-5.485-0.238-8.227
				c-0.119-0.477,0-0.954,0-1.431c0-0.358,0-0.835,0.119-1.192c0.238-0.358,0.596-0.477,1.073-0.596
				c0.477-0.119,0.954-0.238,1.431-0.238c0.715-0.119,1.55-0.119,2.385,0c0.835,0.119,1.073,0.477,1.073,1.192
				c-0.119,0.954,0,1.908-0.119,2.742c0,1.431,0,2.862,0,4.412c0,0.238,0,0.358,0,0.596c0.119,1.431,1.192,3.696,2.981,4.173
				c2.027,0.477,3.219-2.623,3.339-3.816c0.119-0.954,0-12.281-0.119-13.593c-0.238-1.192-0.358-2.265-0.358-3.219
				c0-1.55,0-3.219,0.119-4.65C163.347,47.953,163.585,45.926,163.705,44.018z"/>
		</g>
	</g>
</g>
<g>
	<path fill="#FFFFFF" d="M32.897,30.632c-1.283,0-2.289-0.466-3.018-1.396h-0.156c0.104,0.911,0.156,1.438,0.156,1.582v4.423h-2.979
		V19.519h2.422l0.42,1.416h0.137c0.697-1.081,1.729-1.621,3.096-1.621c1.289,0,2.298,0.498,3.027,1.494s1.094,2.38,1.094,4.15
		c0,1.165-0.171,2.178-0.513,3.037s-0.829,1.514-1.46,1.963S33.75,30.632,32.897,30.632z M32.018,21.696
		c-0.736,0-1.273,0.227-1.611,0.679s-0.514,1.199-0.527,2.241v0.322c0,1.172,0.174,2.012,0.522,2.52s0.9,0.762,1.655,0.762
		c1.334,0,2.002-1.101,2.002-3.301c0-1.074-0.165-1.88-0.493-2.417S32.721,21.696,32.018,21.696z"/>
	<path fill="#FFFFFF" d="M44.651,19.314c0.404,0,0.739,0.029,1.006,0.088l-0.225,2.793c-0.241-0.065-0.534-0.098-0.879-0.098
		c-0.951,0-1.691,0.244-2.222,0.732s-0.796,1.172-0.796,2.051v5.557h-2.979V19.519h2.256l0.439,1.836h0.146
		c0.338-0.612,0.796-1.105,1.372-1.479S43.973,19.314,44.651,19.314z"/>
	<path fill="#FFFFFF" d="M56.561,24.958c0,1.777-0.469,3.167-1.406,4.17s-2.243,1.504-3.916,1.504c-1.048,0-1.973-0.229-2.773-0.688
		s-1.416-1.118-1.846-1.978s-0.645-1.862-0.645-3.008c0-1.784,0.465-3.171,1.396-4.16s2.24-1.484,3.926-1.484
		c1.048,0,1.973,0.228,2.773,0.684s1.416,1.11,1.846,1.963S56.561,23.813,56.561,24.958z M49.012,24.958
		c0,1.081,0.177,1.897,0.532,2.451s0.933,0.83,1.733,0.83c0.794,0,1.366-0.275,1.714-0.825s0.522-1.369,0.522-2.456
		c0-1.081-0.176-1.892-0.527-2.432s-0.928-0.811-1.729-0.811c-0.794,0-1.367,0.269-1.719,0.806S49.012,23.871,49.012,24.958z"/>
	<path fill="#FFFFFF" d="M65.756,30.437l-0.4-1.396H65.2c-0.319,0.508-0.771,0.9-1.357,1.177c-0.586,0.276-1.253,0.415-2.002,0.415
		c-1.283,0-2.25-0.344-2.9-1.03s-0.977-1.675-0.977-2.964v-7.119h2.979v6.377c0,0.788,0.14,1.379,0.42,1.772
		s0.726,0.591,1.338,0.591c0.833,0,1.436-0.278,1.807-0.835s0.557-1.479,0.557-2.769v-5.137h2.979v10.918H65.756z"/>
	<path fill="#FFFFFF" d="M73.623,30.632c-1.283,0-2.29-0.498-3.022-1.494s-1.099-2.376-1.099-4.141c0-1.79,0.373-3.186,1.118-4.185
		s1.772-1.499,3.081-1.499c1.374,0,2.422,0.534,3.145,1.602h0.098c-0.15-0.813-0.225-1.54-0.225-2.178v-3.496h2.988v15.195h-2.285
		l-0.576-1.416h-0.127C76.042,30.095,75.01,30.632,73.623,30.632z M74.668,28.259c0.762,0,1.32-0.222,1.675-0.664
		s0.548-1.194,0.581-2.256v-0.322c0-1.172-0.181-2.012-0.542-2.52s-0.949-0.762-1.763-0.762c-0.664,0-1.18,0.281-1.548,0.845
		s-0.552,1.382-0.552,2.456s0.186,1.88,0.557,2.417S73.978,28.259,74.668,28.259z"/>
	<path fill="#FFFFFF" d="M84.801,30.437h-2.979V15.241h2.979V30.437z"/>
	<path fill="#FFFFFF" d="M85.364,19.519h3.262l2.061,6.143c0.176,0.534,0.296,1.165,0.361,1.895h0.059
		c0.072-0.671,0.211-1.302,0.42-1.895l2.021-6.143h3.193l-4.619,12.314c-0.423,1.139-1.027,1.992-1.812,2.558
		s-1.701,0.85-2.749,0.85c-0.514,0-1.019-0.056-1.514-0.166v-2.363c0.358,0.084,0.749,0.126,1.172,0.126
		c0.527,0,0.988-0.161,1.382-0.483s0.702-0.809,0.923-1.46l0.176-0.537L85.364,19.519z"/>
	<path fill="#FFFFFF" d="M111.576,30.437h-2.979V24.06c0-1.575-0.586-2.363-1.758-2.363c-0.833,0-1.436,0.283-1.807,0.85
		s-0.557,1.484-0.557,2.754v5.137h-2.979V15.241h2.979v3.096c0,0.241-0.023,0.808-0.068,1.699l-0.068,0.879h0.156
		c0.664-1.067,1.719-1.602,3.164-1.602c1.283,0,2.256,0.345,2.92,1.035s0.996,1.68,0.996,2.969V30.437z"/>
	<path fill="#FFFFFF" d="M123.565,24.958c0,1.777-0.469,3.167-1.406,4.17s-2.243,1.504-3.916,1.504
		c-1.048,0-1.973-0.229-2.773-0.688s-1.416-1.118-1.846-1.978s-0.645-1.862-0.645-3.008c0-1.784,0.465-3.171,1.396-4.16
		s2.24-1.484,3.926-1.484c1.048,0,1.973,0.228,2.773,0.684s1.416,1.11,1.846,1.963S123.565,23.813,123.565,24.958z M116.016,24.958
		c0,1.081,0.177,1.897,0.532,2.451s0.933,0.83,1.733,0.83c0.794,0,1.366-0.275,1.714-0.825s0.522-1.369,0.522-2.456
		c0-1.081-0.176-1.892-0.527-2.432s-0.928-0.811-1.729-0.811c-0.794,0-1.367,0.269-1.719,0.806S116.016,23.871,116.016,24.958z"/>
	<path fill="#FFFFFF" d="M132.643,27.195c0,1.12-0.389,1.973-1.167,2.559s-1.942,0.879-3.491,0.879
		c-0.794,0-1.471-0.054-2.031-0.161s-1.084-0.266-1.572-0.474v-2.461c0.553,0.261,1.177,0.479,1.87,0.654s1.304,0.264,1.831,0.264
		c1.081,0,1.621-0.313,1.621-0.938c0-0.234-0.072-0.425-0.215-0.571s-0.391-0.313-0.742-0.498s-0.82-0.402-1.406-0.649
		c-0.84-0.352-1.457-0.677-1.851-0.977s-0.68-0.643-0.859-1.03s-0.269-0.864-0.269-1.431c0-0.97,0.376-1.721,1.128-2.251
		s1.818-0.796,3.198-0.796c1.315,0,2.594,0.286,3.838,0.859l-0.898,2.148c-0.547-0.234-1.058-0.427-1.533-0.576
		s-0.96-0.225-1.455-0.225c-0.879,0-1.318,0.237-1.318,0.713c0,0.267,0.142,0.498,0.425,0.693s0.903,0.485,1.86,0.869
		c0.853,0.345,1.478,0.667,1.875,0.967s0.69,0.645,0.879,1.035S132.643,26.654,132.643,27.195z"/>
	<path fill="#FFFFFF" d="M138.566,28.259c0.521,0,1.146-0.114,1.875-0.342v2.217c-0.742,0.332-1.654,0.498-2.734,0.498
		c-1.191,0-2.059-0.301-2.603-0.903s-0.815-1.506-0.815-2.71v-5.264h-1.426v-1.26l1.641-0.996l0.859-2.305h1.904v2.324h3.057v2.236
		h-3.057v5.264c0,0.423,0.119,0.735,0.356,0.938S138.176,28.259,138.566,28.259z"/>
	<path fill="#FFFFFF" d="M146.59,30.632c-1.758,0-3.132-0.485-4.121-1.455c-0.99-0.97-1.484-2.344-1.484-4.121
		c0-1.829,0.458-3.244,1.372-4.243c0.915-0.999,2.18-1.499,3.794-1.499c1.543,0,2.744,0.439,3.604,1.318s1.289,2.093,1.289,3.643
		v1.445h-7.041c0.032,0.847,0.283,1.507,0.752,1.982s1.126,0.713,1.973,0.713c0.657,0,1.279-0.068,1.865-0.205
		s1.198-0.354,1.836-0.654v2.305c-0.521,0.261-1.077,0.454-1.67,0.581S147.442,30.632,146.59,30.632z M146.17,21.433
		c-0.632,0-1.126,0.2-1.484,0.601s-0.563,0.969-0.615,1.704h4.18c-0.013-0.735-0.205-1.304-0.576-1.704
		S146.802,21.433,146.17,21.433z"/>
	<path fill="#FFFFFF" d="M155.922,30.632c-1.282,0-2.29-0.498-3.022-1.494s-1.099-2.376-1.099-4.141c0-1.79,0.373-3.186,1.118-4.185
		s1.772-1.499,3.081-1.499c1.374,0,2.422,0.534,3.145,1.602h0.098c-0.149-0.813-0.225-1.54-0.225-2.178v-3.496h2.988v15.195h-2.285
		l-0.576-1.416h-0.127C158.341,30.095,157.308,30.632,155.922,30.632z M156.967,28.259c0.762,0,1.32-0.222,1.675-0.664
		s0.549-1.194,0.581-2.256v-0.322c0-1.172-0.181-2.012-0.542-2.52s-0.949-0.762-1.763-0.762c-0.664,0-1.18,0.281-1.548,0.845
		s-0.552,1.382-0.552,2.456s0.186,1.88,0.557,2.417S156.276,28.259,156.967,28.259z"/>
	<path fill="#FFFFFF" d="M174.39,19.314c1.289,0,2.298,0.503,3.027,1.509s1.094,2.385,1.094,4.136c0,1.804-0.376,3.2-1.128,4.189
		s-1.775,1.484-3.071,1.484c-1.282,0-2.288-0.466-3.018-1.396h-0.205l-0.498,1.201h-2.275V15.241h2.979v3.535
		c0,0.449-0.039,1.169-0.117,2.158h0.117C171.991,19.854,173.023,19.314,174.39,19.314z M173.433,21.696
		c-0.735,0-1.272,0.227-1.611,0.679s-0.515,1.199-0.527,2.241v0.322c0,1.172,0.174,2.012,0.522,2.52s0.9,0.762,1.655,0.762
		c0.612,0,1.099-0.281,1.46-0.845s0.542-1.382,0.542-2.456s-0.183-1.88-0.547-2.417S174.065,21.696,173.433,21.696z"/>
	<path fill="#FFFFFF" d="M178.41,19.519h3.262l2.061,6.143c0.176,0.534,0.296,1.165,0.361,1.895h0.059
		c0.071-0.671,0.212-1.302,0.42-1.895l2.021-6.143h3.193l-4.619,12.314c-0.423,1.139-1.027,1.992-1.812,2.558
		s-1.701,0.85-2.749,0.85c-0.515,0-1.019-0.056-1.514-0.166v-2.363c0.358,0.084,0.749,0.126,1.172,0.126
		c0.527,0,0.988-0.161,1.382-0.483s0.701-0.809,0.923-1.46l0.176-0.537L178.41,19.519z"/>
</g>
</svg>
