<?xml version="1.0" encoding="utf-8"?>
<!-- Generator: Adobe Illustrator 17.0.0, SVG Export Plug-In . SVG Version: 6.00 Build 0)  -->
<!DOCTYPE svg PUBLIC "-//W3C//DTD SVG 1.1//EN" "http://www.w3.org/Graphics/SVG/1.1/DTD/svg11.dtd">
<svg version="1.1" id="Layer_1" xmlns="http://www.w3.org/2000/svg" xmlns:xlink="http://www.w3.org/1999/xlink" x="0px" y="0px"
	 width="175px" height="175px" viewBox="0 0 175 175" enable-background="new 0 0 175 175" xml:space="preserve">
<g>
	<path fill="#00B3C3" d="M175,157.283c0,9.785-7.984,17.717-17.832,17.717H18.828C8.98,175,0,167.068,0,157.283V17.717
		C0,7.932,8.98,0,18.828,0h138.34C167.016,0,175,7.932,175,17.717V157.283z"/>
</g>
<g>
	<path fill="#FFFFFF" d="M21.308,45.219c-1.137,0-2.028-0.412-2.674-1.237h-0.139c0.092,0.808,0.139,1.275,0.139,1.402v3.92h-2.64
		V35.372h2.146l0.372,1.255h0.122c0.617-0.958,1.531-1.437,2.743-1.437c1.143,0,2.037,0.441,2.683,1.324
		c0.646,0.883,0.969,2.109,0.969,3.678c0,1.033-0.151,1.93-0.454,2.691c-0.303,0.761-0.734,1.341-1.294,1.739
		C22.721,45.02,22.063,45.219,21.308,45.219z M20.529,37.302c-0.652,0-1.128,0.201-1.428,0.602c-0.3,0.401-0.456,1.063-0.467,1.986
		v0.286c0,1.038,0.154,1.782,0.463,2.232c0.309,0.45,0.797,0.675,1.467,0.675c1.182,0,1.773-0.975,1.773-2.925
		c0-0.952-0.146-1.666-0.437-2.142C21.609,37.539,21.152,37.302,20.529,37.302z"/>
	<path fill="#FFFFFF" d="M31.723,35.19c0.357,0,0.655,0.026,0.891,0.078l-0.199,2.475c-0.214-0.058-0.473-0.086-0.779-0.086
		c-0.843,0-1.499,0.216-1.969,0.649s-0.705,1.038-0.705,1.817v4.924h-2.64v-9.674h1.999l0.39,1.627h0.129
		c0.3-0.542,0.706-0.979,1.216-1.311C30.567,35.356,31.122,35.19,31.723,35.19z"/>
	<path fill="#FFFFFF" d="M42.276,40.192c0,1.575-0.416,2.807-1.246,3.695c-0.831,0.889-1.987,1.333-3.47,1.333
		c-0.929,0-1.748-0.203-2.458-0.61c-0.709-0.407-1.254-0.991-1.635-1.752c-0.381-0.761-0.571-1.649-0.571-2.665
		c0-1.581,0.413-2.809,1.238-3.686c0.825-0.877,1.984-1.315,3.479-1.315c0.929,0,1.748,0.202,2.458,0.606s1.254,0.983,1.635,1.739
		C42.086,38.291,42.276,39.177,42.276,40.192z M35.587,40.192c0,0.958,0.157,1.682,0.472,2.172c0.314,0.491,0.826,0.736,1.536,0.736
		c0.704,0,1.21-0.244,1.519-0.731c0.309-0.487,0.463-1.213,0.463-2.176c0-0.958-0.156-1.676-0.467-2.155
		c-0.312-0.479-0.822-0.718-1.532-0.718c-0.704,0-1.211,0.238-1.523,0.714C35.743,38.509,35.587,39.228,35.587,40.192z"/>
	<path fill="#FFFFFF" d="M50.424,45.046l-0.355-1.237h-0.138c-0.283,0.45-0.684,0.797-1.203,1.042
		c-0.52,0.245-1.111,0.368-1.774,0.368c-1.137,0-1.993-0.304-2.57-0.913c-0.577-0.609-0.865-1.484-0.865-2.626v-6.308h2.639v5.65
		c0,0.698,0.124,1.222,0.372,1.571s0.644,0.523,1.186,0.523c0.738,0,1.272-0.247,1.601-0.74c0.329-0.493,0.493-1.311,0.493-2.453
		v-4.552h2.639v9.674H50.424z"/>
	<path fill="#FFFFFF" d="M57.394,45.219c-1.137,0-2.029-0.441-2.678-1.324s-0.974-2.105-0.974-3.669
		c0-1.586,0.331-2.822,0.991-3.708c0.66-0.885,1.57-1.328,2.73-1.328c1.217,0,2.146,0.473,2.786,1.419h0.086
		c-0.133-0.721-0.199-1.364-0.199-1.93v-3.098h2.648v13.464h-2.025l-0.511-1.255h-0.112C59.537,44.743,58.623,45.219,57.394,45.219z
		 M58.32,43.116c0.675,0,1.169-0.196,1.484-0.588c0.314-0.392,0.486-1.059,0.515-1.999v-0.286c0-1.038-0.16-1.782-0.48-2.232
		c-0.32-0.45-0.841-0.675-1.562-0.675c-0.589,0-1.046,0.25-1.372,0.749c-0.326,0.499-0.489,1.225-0.489,2.176
		s0.165,1.666,0.494,2.142C57.239,42.879,57.709,43.116,58.32,43.116z"/>
	<path fill="#FFFFFF" d="M67.299,45.046h-2.64V31.582h2.64V45.046z"/>
	<path fill="#FFFFFF" d="M67.797,35.372h2.89l1.826,5.443c0.156,0.473,0.263,1.033,0.32,1.679h0.052
		c0.063-0.594,0.188-1.154,0.372-1.679l1.792-5.443h2.83l-4.093,10.912c-0.375,1.01-0.91,1.765-1.605,2.267
		s-1.507,0.753-2.436,0.753c-0.456,0-0.903-0.049-1.341-0.147v-2.094c0.317,0.075,0.663,0.113,1.038,0.113
		c0.467,0,0.875-0.143,1.225-0.429c0.349-0.286,0.622-0.717,0.817-1.293l0.156-0.476L67.797,35.372z"/>
	<path fill="#FFFFFF" d="M91.024,45.046h-2.639v-5.65c0-1.396-0.519-2.094-1.558-2.094c-0.738,0-1.272,0.251-1.601,0.753
		c-0.329,0.502-0.493,1.315-0.493,2.44v4.552h-2.64V31.582h2.64v2.743c0,0.213-0.021,0.715-0.061,1.505l-0.061,0.779h0.139
		c0.588-0.946,1.523-1.419,2.804-1.419c1.136,0,1.999,0.306,2.587,0.917c0.588,0.612,0.882,1.489,0.882,2.631V45.046z"/>
	<path fill="#FFFFFF" d="M101.647,40.192c0,1.575-0.416,2.807-1.246,3.695c-0.831,0.889-1.987,1.333-3.47,1.333
		c-0.929,0-1.748-0.203-2.458-0.61c-0.709-0.407-1.254-0.991-1.635-1.752c-0.381-0.761-0.571-1.649-0.571-2.665
		c0-1.581,0.413-2.809,1.238-3.686c0.825-0.877,1.984-1.315,3.479-1.315c0.929,0,1.748,0.202,2.458,0.606s1.254,0.983,1.635,1.739
		C101.456,38.291,101.647,39.177,101.647,40.192z M94.958,40.192c0,0.958,0.157,1.682,0.472,2.172
		c0.314,0.491,0.826,0.736,1.536,0.736c0.704,0,1.21-0.244,1.519-0.731c0.309-0.487,0.463-1.213,0.463-2.176
		c0-0.958-0.156-1.676-0.467-2.155c-0.312-0.479-0.822-0.718-1.532-0.718c-0.704,0-1.211,0.238-1.523,0.714
		C95.114,38.509,94.958,39.228,94.958,40.192z"/>
	<path fill="#FFFFFF" d="M109.69,42.173c0,0.993-0.345,1.748-1.034,2.267c-0.689,0.52-1.721,0.779-3.094,0.779
		c-0.704,0-1.304-0.047-1.8-0.143s-0.96-0.235-1.393-0.419v-2.181c0.49,0.23,1.042,0.424,1.657,0.58
		c0.614,0.156,1.155,0.233,1.622,0.233c0.958,0,1.437-0.277,1.437-0.831c0-0.208-0.063-0.376-0.19-0.506
		c-0.127-0.129-0.346-0.277-0.658-0.441c-0.312-0.165-0.727-0.356-1.246-0.576c-0.745-0.312-1.291-0.6-1.64-0.865
		c-0.349-0.265-0.603-0.57-0.761-0.913c-0.159-0.343-0.238-0.766-0.238-1.268c0-0.859,0.333-1.524,1-1.995
		c0.667-0.47,1.611-0.705,2.834-0.705c1.165,0,2.299,0.254,3.401,0.761l-0.796,1.904c-0.484-0.208-0.938-0.377-1.358-0.51
		c-0.421-0.133-0.851-0.199-1.29-0.199c-0.778,0-1.168,0.211-1.168,0.632c0,0.236,0.125,0.441,0.376,0.614s0.8,0.43,1.648,0.77
		c0.756,0.306,1.31,0.591,1.662,0.857c0.352,0.265,0.611,0.571,0.778,0.917C109.607,41.282,109.69,41.695,109.69,42.173z"/>
	<path fill="#FFFFFF" d="M114.939,43.116c0.461,0,1.016-0.101,1.662-0.303v1.964c-0.658,0.294-1.465,0.441-2.423,0.441
		c-1.056,0-1.825-0.267-2.306-0.8c-0.482-0.533-0.723-1.334-0.723-2.401v-4.664h-1.263v-1.116l1.454-0.882l0.762-2.042h1.687v2.06
		h2.708v1.981h-2.708v4.664c0,0.375,0.105,0.652,0.316,0.831S114.594,43.116,114.939,43.116z"/>
	<path fill="#FFFFFF" d="M122.05,45.219c-1.558,0-2.775-0.43-3.652-1.289s-1.315-2.077-1.315-3.652c0-1.621,0.405-2.874,1.216-3.76
		c0.811-0.885,1.931-1.328,3.362-1.328c1.367,0,2.432,0.389,3.193,1.168c0.762,0.779,1.143,1.855,1.143,3.228v1.28h-6.239
		c0.029,0.75,0.251,1.336,0.667,1.757s0.998,0.632,1.748,0.632c0.583,0,1.133-0.061,1.653-0.182c0.519-0.121,1.061-0.314,1.626-0.58
		v2.042c-0.461,0.231-0.955,0.402-1.479,0.515C123.446,45.163,122.805,45.219,122.05,45.219z M121.678,37.068
		c-0.56,0-0.998,0.177-1.315,0.532c-0.317,0.355-0.499,0.858-0.545,1.51h3.704c-0.011-0.652-0.182-1.155-0.51-1.51
		C122.681,37.245,122.237,37.068,121.678,37.068z"/>
	<path fill="#FFFFFF" d="M130.318,45.219c-1.137,0-2.029-0.441-2.678-1.324c-0.649-0.883-0.974-2.105-0.974-3.669
		c0-1.586,0.331-2.822,0.991-3.708c0.66-0.885,1.57-1.328,2.73-1.328c1.217,0,2.146,0.473,2.786,1.419h0.086
		c-0.133-0.721-0.199-1.364-0.199-1.93v-3.098h2.648v13.464h-2.025l-0.511-1.255h-0.112
		C132.461,44.743,131.547,45.219,130.318,45.219z M131.244,43.116c0.675,0,1.169-0.196,1.484-0.588
		c0.314-0.392,0.486-1.059,0.515-1.999v-0.286c0-1.038-0.16-1.782-0.48-2.232c-0.32-0.45-0.841-0.675-1.562-0.675
		c-0.589,0-1.046,0.25-1.372,0.749c-0.326,0.499-0.489,1.225-0.489,2.176s0.165,1.666,0.494,2.142
		C130.162,42.879,130.633,43.116,131.244,43.116z"/>
	<path fill="#FFFFFF" d="M146.683,35.19c1.143,0,2.037,0.446,2.683,1.337s0.969,2.113,0.969,3.665c0,1.598-0.333,2.835-1,3.712
		s-1.574,1.315-2.721,1.315c-1.137,0-2.028-0.412-2.674-1.237h-0.182l-0.441,1.064H141.3V31.582h2.64v3.132
		c0,0.398-0.035,1.036-0.104,1.913h0.104C144.557,35.669,145.471,35.19,146.683,35.19z M145.835,37.302
		c-0.652,0-1.128,0.201-1.428,0.602c-0.3,0.401-0.456,1.063-0.467,1.986v0.286c0,1.038,0.154,1.782,0.463,2.232
		c0.309,0.45,0.797,0.675,1.467,0.675c0.542,0,0.973-0.25,1.293-0.749s0.48-1.224,0.48-2.176c0-0.952-0.161-1.666-0.484-2.142
		S146.394,37.302,145.835,37.302z"/>
	<path fill="#FFFFFF" d="M150.245,35.372h2.89l1.826,5.443c0.156,0.473,0.263,1.033,0.32,1.679h0.052
		c0.063-0.594,0.188-1.154,0.372-1.679l1.792-5.443h2.83l-4.093,10.912c-0.375,1.01-0.91,1.765-1.605,2.267
		s-1.507,0.753-2.436,0.753c-0.456,0-0.903-0.049-1.341-0.147v-2.094c0.317,0.075,0.663,0.113,1.038,0.113
		c0.467,0,0.875-0.143,1.225-0.429c0.349-0.286,0.622-0.717,0.817-1.293l0.156-0.476L150.245,35.372z"/>
</g>
<g>
	<g>
		<g>
			<g>
				<path fill="#FFFFFF" d="M76.851,65.357c0,1.017-0.226,2.033-0.339,3.05c-0.226,1.469-0.339,2.824-0.339,4.293v18.188
					c0,2.146-0.678,4.293-1.92,6.213c-0.678,0.904-1.356,1.582-2.372,2.146c-0.904,0.678-1.92,0.904-3.163,0.904
					c-2.146,0-3.954-0.904-5.535-2.372c-0.791-0.678-1.469-1.469-2.146-2.372c-0.678-0.791-1.356-1.582-1.92-2.372
					c-1.13-1.582-3.163-4.293-6.326-8.021c-1.469-1.695-2.824-3.276-4.067-4.406c-1.243-1.243-2.146-1.807-2.824-1.92
					c0,3.163,0,6.439-0.113,9.602c0,1.13-0.113,2.372-0.113,3.615c0,1.017,0.113,2.033,0.452,3.05
					c0.339,1.017,0.452,2.033,0.452,3.05c0,0.678-0.226,1.356-0.678,1.92c-0.565,0.565-1.243,1.13-2.033,1.695
					c-1.695,1.017-3.163,1.582-4.519,1.582c-0.339-0.113-0.565-0.452-0.678-0.904c-0.339-1.017-0.565-2.146-0.791-3.276
					c-0.226-1.13-0.339-2.146-0.452-3.276c-0.452-3.615-0.904-7.23-1.356-10.845c-0.565-3.954-1.243-7.908-1.92-11.862
					c-0.226-1.13-0.452-2.259-0.678-3.502c-0.226-1.243-0.452-2.485-0.452-3.502c0-0.678,0.226-1.356,0.678-2.033
					c0.339-0.678,0.904-1.356,1.469-1.92c1.356-1.243,2.711-1.807,3.954-1.92c0.904,0,1.92,0.113,2.824,0.452
					c0.904,0.339,1.695,0.904,2.146,1.807c0.791,1.243,1.92,2.259,3.163,2.937c0.904,0.565,1.695,1.243,2.372,2.033
					c0.678,0.904,1.243,1.807,1.92,2.598c4.519,5.874,9.15,11.749,13.782,17.51c0.226-0.226,0.452-0.565,0.565-1.13
					c0.113-0.452,0.113-1.017,0.113-1.582c0-1.356,0-2.372,0-2.937V68.633c0.113-4.858,2.485-7.343,7.23-7.456
					c0.791,0,1.582,0.565,2.259,1.356C76.512,63.662,76.851,64.604,76.851,65.357z"/>
			</g>
			<g>
				<path fill="#FFFFFF" d="M110.515,74.959c0,4.067-1.13,8.134-3.276,12.426c-2.146,4.406-4.971,7.682-8.36,9.828
					c-1.017,0.565-2.824,1.469-5.422,2.598c-1.243,0.452-2.259,0.904-3.276,1.243c-1.017,0.452-1.695,0.678-2.146,0.678
					s-0.678-0.226-0.904-0.678c-0.226-0.339-0.339-0.678-0.452-1.017c-0.226-1.13-0.452-2.372-0.565-3.728
					c-0.226-1.243-0.339-2.485-0.452-3.728c-0.565-4.293-1.017-8.586-1.356-12.991c-0.452-4.067-0.791-8.134-1.017-12.2
					c-0.339-2.824-0.452-5.761-0.452-8.586c0-0.904,0.113-1.469,0.339-1.807s0.678-0.678,1.243-1.017
					c2.146-1.017,4.406-1.582,6.778-1.582c3.954,0,7.456,1.356,10.506,3.841c2.937,2.372,5.196,5.422,6.778,9.037
					C109.837,69.875,110.402,72.398,110.515,74.959z M101.477,75.9c-0.113-5.309-2.598-8.924-7.569-10.732
					c-0.565-0.226-1.017-0.339-1.582-0.452c-0.565,0-0.904,0.339-0.904,0.904c0,0.339,0,0.565,0.113,0.904
					c0.678,4.067,1.13,8.134,1.13,12.426c0.113,2.259,0.113,4.406,0.226,6.552c0,1.243-0.113,2.372-0.113,3.615
					c0,0.226,0,0.452,0.113,0.791c0,0.339,0.226,0.678,0.452,0.791c2.259-1.807,4.18-3.954,5.761-6.552
					C100.687,81.549,101.477,78.837,101.477,75.9z"/>
			</g>
			<g>
				<path fill="#FFFFFF" d="M156.605,60.085c-0.565-0.339-1.356-0.565-2.372-0.678c-2.033-0.226-3.615-0.339-4.632-0.339
					c-2.033,0-4.18,0.339-6.326,1.017c-2.146,0.678-4.293,1.13-6.439,1.582c-0.339,0-0.678,0.113-0.904,0.226
					c-0.226,0-0.565,0.226-0.678,0.452c-0.339,0.339-0.565,0.904-0.565,1.695c0,0.565,0,1.13,0.113,1.695
					c-0.113,7.117-0.452,14.121-1.13,21.125c-0.226,2.598-0.339,5.196-0.339,7.795c0,1.017,0.113,2.033,0.339,3.05
					s0.678,1.92,1.469,2.711c1.13,1.017,2.824,2.033,5.084,3.05c1.13,0.452,2.146,0.904,3.276,1.13
					c1.017,0.226,1.807,0.452,2.485,0.452c2.146,0,3.728-0.791,4.971-2.146c1.243-1.356,1.807-3.05,1.807-5.196
					c0-0.678,0-1.13-0.113-1.469c-0.113-0.226-0.452-0.339-1.13-0.339c-3.163,0-5.648-0.565-7.456-1.92
					c-1.92-1.243-2.937-3.615-2.937-7.004c0-1.13,0.113-2.259,0.226-3.276h5.761c0.791,0,1.807-0.339,2.937-0.904
					c0.565-0.226,1.017-0.565,1.356-1.017c0.452-0.565,0.565-1.243,0.904-1.807s0.339-0.904-0.226-1.582
					c-0.452-0.452-0.791-0.452-1.356-0.565c-1.243,0-2.259-0.113-3.276-0.113c-1.807,0-3.728,0-5.648,0.113
					c0.113-4.18,0.226-8.247,0.226-12.313c0.452-0.113,1.017-0.113,1.469-0.113c1.243,0,2.485,0.113,3.728,0.226
					c1.243,0.226,2.485,0.339,3.728,0.339c0.339,0,0.791,0,1.243-0.113s0.791-0.226,1.017-0.339l4.18-3.276
					c0.226-0.226,0.339-0.565,0.339-0.904C157.622,60.838,157.283,60.424,156.605,60.085z"/>
			</g>
			<g>
				<g>
					<path fill="#FFFFFF" d="M125.878,87.875c-0.113,1.695-1.807,6.326-4.632,5.535c-2.485-0.678-3.841-4.067-4.067-6.213
						c-0.565-5.084,0.565-11.862,0.339-16.832c-0.452-4.067-0.565-8.021-0.226-12.087c0.113-1.243,0.565-2.033,1.582-2.485
						c0.904-0.565,1.807-0.678,2.824-0.678c1.017,0.113,3.502,0.565,3.954,1.243s0.565,1.582,0.452,2.711
						c-0.226,2.937-0.452,5.874-0.678,8.811c-0.113,2.259-0.226,4.519-0.226,6.891c0.113,1.469,0.226,3.163,0.565,4.858
						C125.878,81.549,125.991,86.406,125.878,87.875z M127.121,102.222c-0.113,1.243-0.791,2.372-1.695,3.163
						c-1.017,0.791-3.841,1.13-5.196,1.13c-1.13-0.226-1.807-0.791-1.92-2.033c-0.113-1.017-0.226-2.033,0-3.05
						c0.113-1.13,0.565-2.146,1.356-2.937c0.791-0.678,3.389-1.017,4.519-0.904c1.13,0.113,1.92,0.678,2.372,1.582
						S127.234,101.092,127.121,102.222z"/>
				</g>
			</g>
			<g>
				<g>
					<path fill="#FFFFFF" d="M17.543,75.448c0.113-1.695,0.113-6.665,1.92-7.23c3.502-1.017,6.552,3.954,6.778,6.1
						c0.565,5.084-0.565,11.862-0.339,16.832c0.452,4.067,0.565,8.021,0.226,12.087c-0.113,1.243-0.565,2.033-1.582,2.485
						c-0.904,0.565-3.502,0.678-4.519,0.678c-1.017-0.113-1.807-0.565-2.259-1.243c-0.452-0.678-0.565-1.582-0.452-2.711
						c0.226-2.937,0.452-5.874,0.678-8.811c0.113-2.259,0.226-4.519,0.226-6.891c-0.113-1.469-0.226-3.163-0.565-4.858
						C17.43,80.042,17.43,76.804,17.543,75.448z M16.3,59.407c0.113-1.243,0.791-2.372,1.695-3.163
						c1.017-0.791,2.146-1.13,3.502-1.13c1.13,0.226,3.502,0.791,3.615,2.033c0.113,1.017,0.226,2.033,0,3.05
						c-0.113,1.13-0.565,2.146-1.356,2.937c-0.791,0.678-3.389,1.017-4.519,0.904c-1.13-0.113-1.92-0.678-2.372-1.582
						C16.413,61.554,16.187,60.537,16.3,59.407z"/>
				</g>
			</g>
		</g>
		<g>
			<g>
				<path fill="#FFFFFF" d="M57.985,128.618c0,1.582-0.113,3.163-0.339,4.971c-0.226,1.807-0.791,3.389-1.469,4.971
					c-0.678,1.582-1.582,2.824-2.824,3.728c-1.243,1.017-2.824,1.582-4.858,1.582c-4.18,0-7.117-1.243-8.586-3.728
					c-1.469-2.372-2.259-5.535-2.146-9.489c0-2.824,0.339-5.648,1.243-8.36c0.904-2.711,2.598-4.858,5.084-6.326
					c1.469-0.904,2.937-1.243,4.632-1.243c1.582,0,2.937,0.452,4.18,1.469c1.13,0.904,2.033,2.146,2.824,3.615
					C57.194,122.782,57.985,125.794,57.985,128.618z M51.094,132.271c0-1.13-0.226-2.259-0.452-3.389
					c-0.113-0.791-0.565-2.259-1.13-4.519c-0.226-1.017-0.565-1.807-0.904-2.598c-0.339-0.678-0.678-1.017-0.904-1.017
					c-0.791,0-1.356,0.339-1.807,0.791c-0.452,0.565-0.791,1.13-0.904,2.033c-0.339,1.807-0.452,3.276-0.452,4.519
					c0,0.791,0.113,1.695,0.226,2.711c0.113,1.13,0.339,2.259,0.678,3.276c0.339,1.017,0.791,2.033,1.469,2.711
					c0.678,0.791,1.582,1.243,2.598,1.243c0.339,0,0.678-0.226,0.904-0.791s0.339-1.13,0.565-1.807
					C50.981,133.965,51.094,132.949,51.094,132.271z"/>
			</g>
			<g>
				<path fill="#FFFFFF" d="M61.939,122.895c0-1.017,0.339-2.033,1.13-3.05c0.678-1.13,1.356-2.033,2.033-2.824
					c0.565-0.678,1.356-1.695,2.485-2.937c0.565-0.565,1.017-1.017,1.582-1.356c1.13-0.791,3.163-0.791,3.728,0.678
					c0.226,0.452,0.452,0.791,0.452,1.017c0,0.452-0.339,1.017-0.904,1.582c-0.565,0.565-1.13,1.243-1.807,1.92
					c-0.791,0.678-1.356,1.469-1.92,2.259c-0.452,0.678-0.791,1.469-0.791,2.259c0,0.678,0.339,1.469,1.017,2.485
					c0.678,0.904,1.582,1.807,2.485,2.937c0.904,1.13,1.695,2.259,2.372,3.502c0.791,1.243,1.13,2.598,1.13,3.954
					c0,2.372-0.904,4.858-2.598,7.343c-0.791,1.243-1.695,2.259-2.824,2.937c-1.017,0.791-2.146,1.13-3.276,1.13
					c-0.226,0-0.565-0.113-0.791-0.452c-0.226-0.226-0.565-0.565-0.791-1.017c-0.452-0.904-0.791-1.582-0.791-2.146
					c0-0.226,0.113-0.452,0.226-0.678c0.226-0.339,0.452-0.565,0.678-0.565c0.339,0,0.678-0.226,1.017-0.565
					c0.339-0.452,0.678-0.904,1.017-1.582c0.678-1.356,1.13-2.372,1.356-2.937c0.226-0.904,0.452-1.807,0.452-2.711
					c0-1.13-0.339-2.259-1.017-3.163c-0.678-0.904-1.356-1.807-2.259-2.711c-0.904-0.791-1.582-1.695-2.259-2.485
					C62.278,124.928,61.939,123.911,61.939,122.895z"/>
			</g>
			<g>
				<path fill="#FFFFFF" d="M100.348,117.02c0,1.017-0.226,1.807-0.678,2.372s-1.017,1.017-1.807,1.13
					c-0.791,0.226-1.582,0.339-2.485,0.339c-0.904,0.113-1.695,0.113-2.485,0.113c-0.678,0-1.469,0-2.146,0
					c-0.113,1.13-0.226,2.146-0.452,3.276c-0.226,1.13-0.339,2.259-0.452,3.389l-0.226,9.489c0,0.678,0,1.469,0,2.372
					s-0.113,1.92-0.339,2.711c-0.226,0.904-0.565,1.582-1.017,2.146s-1.243,0.904-2.259,1.017c-0.226,0.113-0.452,0.113-0.678,0.113
					c-0.339,0-0.565-0.226-0.678-0.678c-0.113-0.339-0.226-0.678-0.226-0.904c0-1.695,0.113-3.389,0.339-5.084
					c0.339-4.067,0.565-8.134,0.565-12.087c0-2.146-0.226-4.293-0.565-6.439c-0.565-0.113-1.356-0.339-2.259-0.565
					c-0.904-0.226-1.92-0.452-2.824-0.791c-0.904-0.339-1.695-0.904-2.372-1.469s-1.017-1.243-1.017-1.92
					c0-0.339,0.113-0.791,0.452-1.017c0.226-0.339,0.565-0.452,0.904-0.452h1.92c0.113-0.113,0.339-0.226,0.678-0.339
					c0.339-0.113,0.678-0.113,1.017-0.113c0.791,0,1.356,0,1.695,0c2.485,0,4.971,0.226,7.569,0.452
					c1.469,0.113,2.937,0.226,4.406,0.452c0.678,0.339,1.243,0.452,1.92,0.565c0.678-0.113,1.243-0.113,1.92-0.226
					c0.565,0,0.904,0.226,1.243,0.678C100.235,116.004,100.348,116.456,100.348,117.02z"/>
			</g>
			<g>
				<path fill="#FFFFFF" d="M119.439,144.584c-0.452,0.226-0.904,0.339-1.582,0.452c-1.356,0.113-2.485,0.226-3.163,0.226
					c-1.356,0-2.824-0.226-4.293-0.678c-1.469-0.452-2.937-0.791-4.406-1.017c-0.226,0-0.452-0.113-0.565-0.113
					c-0.226,0-0.339-0.113-0.452-0.339c-0.226-0.226-0.339-0.565-0.339-1.243c0-0.339,0-0.791,0-1.243
					c-0.113-4.858-0.339-9.715-0.791-14.46c-0.113-1.807-0.226-3.615-0.226-5.309c0-0.678,0.113-1.356,0.226-2.146
					c0.226-0.678,0.452-1.356,1.017-1.92c0.791-0.678,1.92-1.356,3.502-2.033c0.791-0.339,1.469-0.565,2.259-0.791
					c0.678-0.226,1.243-0.339,1.695-0.339c1.469,0,2.598,0.565,3.389,1.469c0.791,0.904,1.243,2.146,1.243,3.615
					c0,0.452,0,0.791,0,1.017c-0.113,0.226-0.339,0.226-0.791,0.226c-2.146,0-3.841,0.452-5.084,1.356
					c-1.356,0.904-1.92,2.485-1.92,4.858c0,0.791,0,1.469,0.113,2.259h3.954c0.565,0,1.243,0.226,2.033,0.565
					c0.791,0.339,2.485,1.13,2.146,2.259c-0.113,0.339-0.339,0.678-0.678,0.791c-0.904,0.452-2.259,0.339-3.276,0.339
					c-1.243,0-2.598,0-3.841-0.113c0.113,2.824,0.113,5.648,0.113,8.473c0.339,0.113,0.678,0.113,1.017,0.113
					c0.904,0,1.695-0.113,2.598-0.226c0.904-0.226,1.695-0.226,2.598-0.226c0.226,0,0.452,0,0.791,0
					c0.339,0.113,0.565,0.113,0.678,0.226l2.937,2.259c0.113,0.226,0.226,0.452,0.226,0.678
					C120.117,144.02,119.891,144.321,119.439,144.584z"/>
			</g>
			<g>
				<path fill="#FFFFFF" d="M143.275,142.551c0,1.017-2.485,1.807-3.276,1.807c-0.339,0-0.791-0.226-1.13-0.452
					c-0.339-0.339-0.791-0.678-1.243-1.13c-0.904-1.017-1.695-2.146-2.485-3.276c-0.791-1.243-1.582-2.372-2.372-3.276
					c-0.791-0.904-1.469-1.469-2.033-1.469v7.117c0,0.226-0.113,0.678-0.452,1.243c-0.226,0.565-0.678,1.13-1.13,1.807
					c-0.452,0.565-0.904,1.13-1.356,1.582s-0.904,0.678-1.243,0.791c-2.259,0-3.389-1.243-3.389-3.615
					c0-1.13,0.113-2.259,0.339-3.389c0.226-1.695,0.226-3.276,0.226-4.858c0-4.293-0.226-8.586-0.565-12.765
					c-0.226-2.146-0.339-4.18-0.339-6.326c0-3.389,3.05-5.874,6.213-5.874c2.146,0,4.519,0.452,6.891,1.469
					c1.13,0.565,2.033,1.243,2.824,2.033c0.678,0.904,1.017,1.92,1.017,3.276c0,1.243-0.339,2.598-1.017,3.728
					c-0.678,1.243-1.356,2.372-2.259,3.389c-0.791,1.017-1.582,1.92-2.259,2.711s-1.017,1.356-1.017,1.807
					c0,0.113,0.226,0.339,0.565,0.678s0.791,0.678,1.243,1.017c1.017,0.791,1.807,1.356,2.259,1.695
					c0.791,0.678,1.582,1.469,2.259,2.259c0.678,0.678,1.13,1.469,1.469,2.259s0.565,1.695,0.904,2.598
					c0.226,0.339,0.452,0.904,0.678,1.582C143.049,141.61,143.275,142.174,143.275,142.551z M135.029,117.886
					c0-0.678-0.226-1.13-0.565-1.356s-0.791-0.226-1.356-0.226c-0.452,0-1.017,0.113-1.582,0.339
					c-0.565,0.226-1.13,0.452-1.582,0.678l0.226,8.811c0.452-0.226,1.017-0.678,1.582-1.356c0.565-0.678,1.13-1.469,1.582-2.259
					C134.464,120.522,135.029,119.016,135.029,117.886z"/>
			</g>
			<g>
				<path fill="#FFFFFF" d="M158.187,135.961c0,1.017-0.339,2.033-1.13,3.05c-0.678,1.13-1.356,2.033-2.033,2.824
					c-0.565,0.678-1.356,1.695-2.485,2.937c-0.565,0.565-1.017,1.017-1.582,1.469c-2.146,1.582-5.422-0.904-3.276-3.163
					c0.565-0.565,1.13-1.243,1.807-1.92c0.791-0.678,1.356-1.469,1.92-2.259c0.452-0.678,0.791-1.469,0.791-2.259
					c0-0.678-0.339-1.469-1.017-2.485c-0.678-0.904-1.582-1.807-2.485-2.937c-0.904-1.13-1.695-2.259-2.372-3.502
					c-0.791-1.243-1.13-2.598-1.13-3.954c0-2.372,0.904-4.858,2.598-7.343c0.791-1.243,1.695-2.259,2.824-2.937
					c1.017-0.791,2.146-1.13,3.276-1.13c0.226,0,0.565,0.113,0.791,0.452c0.226,0.226,0.565,0.565,0.791,1.017
					c0.452,0.904,0.791,1.582,0.791,2.146c0,0.904-1.13,1.243-1.695,1.695c-1.356,1.13-2.146,3.05-2.598,4.632
					c-0.226,0.904-0.452,1.807-0.452,2.711c0,1.13,0.339,2.259,1.017,3.163c0.678,0.904,1.356,1.807,2.259,2.711
					c0.904,0.791,1.582,1.695,2.259,2.485C157.848,133.965,158.187,134.832,158.187,135.961z"/>
			</g>
			<g>
				<path fill="#FFFFFF" d="M32.68,114.761c0.113-0.678,0-1.356-0.339-1.807c-0.339-0.452-2.033-0.791-2.711-0.791
					c-0.678-0.113-1.356,0.113-1.92,0.452c-0.678,0.339-1.017,0.904-1.017,1.582c-0.226,2.598-0.113,5.196,0.226,7.795
					c0.113,0.565,0,1.243,0,1.807s0,1.356-0.226,1.92c-0.226,0.452-1.017,0.565-1.582,0.678c-0.791,0.113-1.582,0.226-2.372,0.226
					c-0.791,0-1.469-0.113-1.469-0.904c0-0.113,0-0.339,0-0.452c0-2.937,0.226-5.987,0-8.924c0-0.113,0-0.226,0-0.452
					c-0.226-1.356-2.259-3.502-4.632-2.824c-1.243,0.339-1.243,3.615-1.356,4.632c-0.113,0.904,0,10.619,0.113,11.749
					c0.226,1.13,0.339,2.146,0.339,3.05c0,1.469,0,3.05-0.113,4.406c-0.113,1.92-0.226,3.841-0.452,5.648
					c-0.113,0.678,0,1.356,0.339,1.807c0.339,0.452,0.791,0.791,1.582,0.791c0.678,0.113,2.485-0.113,3.163-0.452
					c0.678-0.339,1.017-0.904,1.017-1.582c0.226-2.598,0.113-5.196-0.226-7.795c-0.113-0.452,0-0.904,0-1.356
					c0-0.339,0-0.791,0.113-1.13c0.226-0.339,0.565-0.452,1.017-0.565s0.904-0.226,1.356-0.226c0.678-0.113,1.469-0.113,2.259,0
					c0.791,0.113,1.017,0.452,1.017,1.13c-0.113,0.904,0,1.807-0.113,2.598c0,1.356,0,2.711,0,4.18c0,0.226,0,0.339,0,0.565
					c0.113,1.356,1.13,3.502,2.824,3.954c1.92,0.452,3.05-2.485,3.163-3.615c0.113-0.904,0-11.636-0.113-12.878
					c-0.226-1.13-0.339-2.146-0.339-3.05c0-1.469,0-3.05,0.113-4.406C32.342,118.451,32.454,116.569,32.68,114.761z"/>
			</g>
		</g>
	</g>
</g>
</svg>
