<?xml version="1.0" encoding="utf-8"?>
<!-- Generator: Adobe Illustrator 17.0.0, SVG Export Plug-In . SVG Version: 6.00 Build 0)  -->
<!DOCTYPE svg PUBLIC "-//W3C//DTD SVG 1.1//EN" "http://www.w3.org/Graphics/SVG/1.1/DTD/svg11.dtd">
<svg version="1.1" id="Layer_1" xmlns="http://www.w3.org/2000/svg" xmlns:xlink="http://www.w3.org/1999/xlink" x="0px" y="0px"
	 width="379.351px" height="93.986px" viewBox="0 0 379.351 93.986" enable-background="new 0 0 379.351 93.986"
	 xml:space="preserve">
<g>
	<path fill="#00B3C3" d="M379.351,80.295c0,7.562-6.13,13.692-13.692,13.692H13.692C6.13,93.986,0,87.856,0,80.295V13.692
		C0,6.13,6.13,0,13.692,0H365.66c7.562,0,13.692,6.13,13.692,13.692V80.295z"/>
</g>
<g>
	<g>
		<g>
			<path fill="#FFFFFF" d="M143.269,47.476c0,0.715-0.119,1.431-0.238,2.146c-0.238,1.073-0.238,2.027-0.238,3.1v13.235
				c0,1.55-0.477,3.1-1.431,4.531c-0.477,0.596-1.073,1.192-1.669,1.55c-0.715,0.477-1.431,0.715-2.265,0.715
				c-1.55,0-2.862-0.596-3.935-1.789c-0.596-0.477-1.073-1.073-1.55-1.669s-0.954-1.192-1.431-1.669
				c-0.835-1.192-2.266-3.1-4.531-5.723c-1.073-1.312-2.027-2.385-2.862-3.219c-0.954-0.835-1.55-1.312-2.027-1.431
				c0,2.265,0,4.65-0.119,6.916c0,0.835-0.119,1.669-0.119,2.623c0,0.715,0.119,1.431,0.358,2.146
				c0.238,0.715,0.358,1.431,0.358,2.266c0,0.477-0.119,0.954-0.477,1.431c-0.358,0.477-0.835,0.835-1.431,1.192
				c-1.192,0.715-2.265,1.073-3.219,1.073c-0.238-0.119-0.358-0.238-0.477-0.715c-0.238-0.715-0.477-1.55-0.596-2.385
				c-0.119-0.835-0.238-1.55-0.358-2.385c-0.358-2.623-0.596-5.246-0.954-7.87c-0.477-2.862-0.954-5.723-1.431-8.585
				c-0.119-0.835-0.358-1.669-0.477-2.504c-0.238-0.954-0.238-1.789-0.238-2.504c0-0.477,0.119-0.954,0.477-1.55
				c0.238-0.477,0.596-0.954,1.073-1.431c0.954-0.835,1.908-1.312,2.862-1.312c0.715,0,1.312,0.119,2.027,0.358
				c0.715,0.238,1.192,0.715,1.55,1.312c0.596,0.954,1.312,1.55,2.265,2.146c0.715,0.358,1.192,0.835,1.789,1.431
				c0.477,0.596,0.954,1.312,1.312,1.908c3.339,4.293,6.558,8.466,9.897,12.639c0.238-0.119,0.358-0.477,0.477-0.835
				c0.119-0.358,0.119-0.715,0.119-1.192c0-0.954,0-1.669,0-2.146v-9.539c0.119-3.577,1.789-5.366,5.246-5.366
				c0.596,0,1.192,0.358,1.55,1.073C143.031,46.283,143.269,46.88,143.269,47.476z"/>
		</g>
		<g>
			<path fill="#FFFFFF" d="M167.594,54.511c0,2.862-0.835,5.962-2.385,9.062c-1.55,3.1-3.577,5.485-6.081,7.035
				c-0.715,0.358-2.027,1.073-3.935,1.908c-0.835,0.358-1.669,0.715-2.385,0.954c-0.715,0.358-1.192,0.477-1.55,0.477
				c-0.358,0-0.477-0.119-0.596-0.477c-0.119-0.238-0.238-0.477-0.358-0.715c-0.238-0.835-0.358-1.789-0.358-2.623
				c-0.119-0.954-0.238-1.789-0.358-2.623c-0.358-3.1-0.715-6.2-0.954-9.3c-0.238-2.981-0.596-5.843-0.715-8.823
				c-0.238-2.027-0.358-4.173-0.358-6.2c0-0.596,0.119-1.073,0.238-1.312c0.238-0.238,0.477-0.477,0.954-0.715
				c1.55-0.715,3.219-1.073,4.889-1.073c2.862,0,5.366,0.954,7.631,2.742c2.146,1.789,3.816,3.935,4.889,6.558
				C167.117,50.814,167.594,52.603,167.594,54.511z M161.036,55.107c-0.119-3.816-1.908-6.439-5.485-7.75
				c-0.358-0.119-0.715-0.238-1.192-0.358c-0.358,0-0.596,0.238-0.596,0.596c0,0.238,0,0.477,0.119,0.596
				c0.477,2.981,0.835,5.962,0.835,8.943c0.119,1.669,0.119,3.219,0.119,4.769c0,0.835-0.119,1.789-0.119,2.623
				c0,0.119,0,0.358,0,0.596c0,0.238,0.119,0.477,0.358,0.596c1.669-1.312,2.981-2.862,4.173-4.769
				C160.439,59.161,161.036,57.253,161.036,55.107z"/>
		</g>
		<g>
			<path fill="#FFFFFF" d="M200.98,43.66c-0.477-0.238-0.954-0.358-1.669-0.477c-1.431-0.119-2.623-0.238-3.339-0.238
				c-1.431,0-2.981,0.238-4.531,0.715c-1.55,0.477-3.1,0.835-4.65,1.073c-0.238,0-0.477,0.119-0.596,0.119
				c-0.238,0-0.358,0.119-0.477,0.358c-0.238,0.238-0.358,0.596-0.358,1.312c0,0.358,0,0.835,0,1.312
				c-0.119,5.127-0.358,10.254-0.835,15.262c-0.119,1.908-0.238,3.816-0.238,5.604c0,0.715,0.119,1.431,0.238,2.266
				c0.238,0.715,0.477,1.431,1.073,2.027c0.835,0.715,2.027,1.431,3.696,2.146c0.835,0.358,1.55,0.596,2.385,0.835
				c0.715,0.238,1.312,0.358,1.789,0.358c1.55,0,2.742-0.596,3.577-1.55c0.835-0.954,1.312-2.265,1.312-3.816
				c0-0.477,0-0.835,0-1.073c-0.119-0.238-0.358-0.238-0.835-0.238c-2.266,0-4.054-0.477-5.366-1.431
				c-1.431-0.954-2.027-2.623-2.027-5.127c0-0.835,0-1.55,0.119-2.385h4.173c0.596,0,1.312-0.238,2.146-0.596
				c0.358-0.238,0.715-0.477,0.954-0.715c0.358-0.358,0.358-0.835,0.596-1.312c0.238-0.477,0.238-0.715-0.119-1.073
				c-0.238-0.358-0.596-0.358-0.954-0.358c-0.835,0-1.669,0-2.385,0c-1.312,0-2.742,0-4.054,0.119
				c0.119-2.981,0.119-5.962,0.119-8.943c0.358-0.119,0.715-0.119,1.073-0.119c0.954,0,1.789,0.119,2.742,0.238
				c0.954,0.238,1.789,0.238,2.742,0.238c0.238,0,0.477,0,0.835,0c0.358-0.119,0.596-0.119,0.715-0.238l3.1-2.385
				c0.119-0.238,0.238-0.477,0.238-0.715C201.576,44.256,201.337,43.899,200.98,43.66z"/>
		</g>
		<g>
			<path fill="#FFFFFF" d="M264.414,58.684c0,1.669-0.119,3.339-0.358,5.246c-0.238,1.908-0.835,3.577-1.55,5.246
				c-0.715,1.669-1.669,2.981-2.981,3.935c-1.312,1.073-2.981,1.669-5.127,1.669c-4.412,0-7.512-1.312-9.062-3.935
				c-1.55-2.504-2.385-5.843-2.266-10.016c0-2.981,0.358-5.962,1.312-8.824s2.742-5.127,5.366-6.677
				c1.55-0.954,3.1-1.312,4.889-1.312c1.669,0,3.1,0.477,4.412,1.55c1.192,0.954,2.146,2.265,2.981,3.816
				C263.698,52.484,264.414,55.703,264.414,58.684z M257.14,62.5c0-1.192-0.238-2.385-0.477-3.577
				c-0.119-0.835-0.596-2.385-1.192-4.769c-0.238-1.073-0.596-1.908-0.954-2.742c-0.358-0.715-0.715-1.073-0.954-1.073
				c-0.835,0-1.431,0.358-1.908,0.835c-0.477,0.596-0.835,1.192-0.954,2.146c-0.358,1.908-0.477,3.458-0.477,4.769
				c0,0.835,0.119,1.789,0.238,2.862c0.119,1.192,0.358,2.385,0.715,3.458c0.358,1.073,0.835,2.146,1.55,2.862
				c0.715,0.835,1.669,1.312,2.742,1.312c0.358,0,0.715-0.238,0.954-0.835c0.238-0.596,0.358-1.192,0.596-1.908
				C257.14,64.288,257.14,63.215,257.14,62.5z"/>
		</g>
		<g>
			<path fill="#FFFFFF" d="M268.587,52.603c0-1.073,0.358-2.146,1.192-3.219c0.715-1.192,1.431-2.146,2.146-2.981
				c0.596-0.715,1.431-1.789,2.623-3.1c0.596-0.596,1.073-1.073,1.669-1.431c1.192-0.835,3.339-0.835,3.935,0.715
				c0.238,0.477,0.477,0.835,0.477,1.073c0,0.477-0.358,1.073-0.954,1.669c-0.596,0.596-1.192,1.312-1.908,2.027
				c-0.835,0.715-1.431,1.55-2.027,2.385c-0.477,0.715-0.835,1.55-0.835,2.385c0,0.715,0.358,1.55,1.073,2.623
				c0.715,0.954,1.669,1.908,2.623,3.1c0.954,1.192,1.789,2.385,2.504,3.696c0.835,1.312,1.192,2.742,1.192,4.173
				c0,2.504-0.954,5.127-2.742,7.75c-0.835,1.312-1.789,2.385-2.981,3.1c-1.073,0.835-2.266,1.192-3.458,1.192
				c-0.238,0-0.596-0.119-0.835-0.477c-0.238-0.238-0.596-0.596-0.835-1.073c-0.477-0.954-0.835-1.669-0.835-2.265
				c0-0.238,0.119-0.477,0.238-0.715c0.238-0.358,0.477-0.596,0.715-0.596c0.358,0,0.715-0.238,1.073-0.596
				c0.358-0.477,0.715-0.954,1.073-1.669c0.715-1.431,1.192-2.504,1.431-3.1c0.238-0.954,0.477-1.908,0.477-2.862
				c0-1.192-0.358-2.385-1.073-3.339c-0.715-0.954-1.431-1.908-2.385-2.862c-0.954-0.835-1.669-1.789-2.385-2.623
				C268.945,54.749,268.587,53.676,268.587,52.603z"/>
		</g>
		<g>
			<path fill="#FFFFFF" d="M309.127,46.403c0,1.073-0.238,1.908-0.715,2.504c-0.477,0.596-1.073,1.073-1.908,1.192
				c-0.835,0.238-1.669,0.358-2.623,0.358c-0.954,0.119-1.789,0.119-2.623,0.119c-0.715,0-1.55,0-2.266,0
				c-0.119,1.192-0.238,2.265-0.477,3.458c-0.238,1.192-0.358,2.385-0.477,3.577L297.8,67.627c0,0.715,0,1.55,0,2.504
				s-0.119,2.027-0.358,2.862c-0.238,0.954-0.596,1.669-1.073,2.266c-0.477,0.596-1.312,0.954-2.385,1.073
				c-0.238,0.119-0.477,0.119-0.715,0.119c-0.358,0-0.596-0.238-0.715-0.715c-0.119-0.358-0.238-0.715-0.238-0.954
				c0-1.789,0.119-3.577,0.358-5.366c0.358-4.293,0.596-8.585,0.596-12.758c0-2.265-0.238-4.531-0.596-6.796
				c-0.596-0.119-1.431-0.358-2.385-0.596s-2.027-0.477-2.981-0.835c-0.954-0.358-1.789-0.954-2.504-1.55
				c-0.715-0.596-1.073-1.312-1.073-2.027c0-0.358,0.119-0.835,0.477-1.073c0.238-0.358,0.596-0.477,0.954-0.477h2.027
				c0.119-0.119,0.358-0.238,0.715-0.358s0.715-0.119,1.073-0.119c0.835,0,1.431,0,1.789,0c2.623,0,5.246,0.238,7.989,0.477
				c1.55,0.119,3.1,0.238,4.65,0.477c0.715,0.358,1.312,0.477,2.027,0.596c0.715-0.119,1.312-0.119,2.027-0.238
				c0.596,0,0.954,0.238,1.312,0.715C309.008,45.33,309.127,45.806,309.127,46.403z"/>
		</g>
		<g>
			<path fill="#FFFFFF" d="M329.278,75.496c-0.477,0.238-0.954,0.358-1.669,0.477c-1.431,0.119-2.623,0.238-3.339,0.238
				c-1.431,0-2.981-0.238-4.531-0.715c-1.55-0.477-3.1-0.835-4.65-1.073c-0.238,0-0.477-0.119-0.596-0.119
				c-0.238,0-0.358-0.119-0.477-0.358c-0.238-0.238-0.358-0.596-0.358-1.312c0-0.358,0-0.835,0-1.312
				c-0.119-5.127-0.358-10.254-0.835-15.262c-0.119-1.908-0.238-3.816-0.238-5.604c0-0.715,0.119-1.431,0.238-2.265
				c0.238-0.715,0.477-1.431,1.073-2.027c0.835-0.715,2.027-1.431,3.696-2.146c0.835-0.358,1.55-0.596,2.385-0.835
				c0.715-0.238,1.312-0.358,1.789-0.358c1.55,0,2.742,0.596,3.577,1.55c0.835,0.954,1.312,2.265,1.312,3.816
				c0,0.477,0,0.835,0,1.073c-0.119,0.238-0.358,0.238-0.835,0.238c-2.266,0-4.054,0.477-5.366,1.431
				c-1.431,0.954-2.027,2.623-2.027,5.127c0,0.835,0,1.55,0.119,2.385h4.173c0.596,0,1.312,0.238,2.146,0.596
				c0.835,0.358,2.623,1.192,2.265,2.385c-0.119,0.358-0.358,0.715-0.715,0.835c-0.954,0.477-2.385,0.358-3.458,0.358
				c-1.312,0-2.742,0-4.054-0.119c0.119,2.981,0.119,5.962,0.119,8.943c0.358,0.119,0.715,0.119,1.073,0.119
				c0.954,0,1.789-0.119,2.742-0.238c0.954-0.238,1.789-0.238,2.742-0.238c0.238,0,0.477,0,0.835,0
				c0.358,0.119,0.596,0.119,0.715,0.238l3.1,2.385c0.119,0.238,0.238,0.477,0.238,0.715
				C329.994,74.9,329.755,75.258,329.278,75.496z"/>
		</g>
		<g>
			<path fill="#FFFFFF" d="M354.437,73.35c0,1.073-2.623,1.908-3.458,1.908c-0.358,0-0.835-0.238-1.192-0.477
				c-0.358-0.358-0.835-0.715-1.312-1.192c-0.954-1.073-1.789-2.266-2.623-3.458c-0.835-1.312-1.669-2.504-2.504-3.458
				c-0.835-0.954-1.55-1.55-2.146-1.55v7.512c0,0.238-0.119,0.715-0.477,1.312c-0.238,0.596-0.715,1.192-1.192,1.908
				c-0.477,0.596-0.954,1.192-1.431,1.669s-0.954,0.715-1.312,0.835c-2.385,0-3.577-1.312-3.577-3.816
				c0-1.192,0.119-2.385,0.358-3.577c0.238-1.789,0.238-3.458,0.238-5.127c0-4.531-0.238-9.062-0.596-13.474
				c-0.238-2.265-0.358-4.412-0.358-6.677c0-3.577,3.219-6.2,6.558-6.2c2.266,0,4.769,0.477,7.273,1.55
				c1.192,0.596,2.146,1.312,2.981,2.146c0.715,0.954,1.073,2.027,1.073,3.458c0,1.312-0.358,2.742-1.073,3.935
				c-0.715,1.312-1.431,2.504-2.385,3.577c-0.835,1.073-1.669,2.027-2.385,2.862s-1.073,1.431-1.073,1.908
				c0,0.119,0.238,0.358,0.596,0.715c0.358,0.358,0.835,0.715,1.312,1.073c1.073,0.835,1.908,1.431,2.385,1.789
				c0.835,0.715,1.669,1.55,2.385,2.385c0.715,0.715,1.192,1.55,1.55,2.385c0.358,0.835,0.596,1.789,0.954,2.742
				c0.238,0.358,0.477,0.954,0.715,1.669C354.318,72.396,354.437,72.992,354.437,73.35z M345.852,47.357
				c0-0.715-0.238-1.192-0.596-1.431c-0.358-0.238-0.835-0.238-1.431-0.238c-0.477,0-1.073,0.119-1.669,0.358
				s-1.192,0.477-1.669,0.715l0.238,9.3c0.477-0.238,1.073-0.715,1.669-1.431s1.192-1.55,1.669-2.385
				C345.137,50.099,345.733,48.549,345.852,47.357z"/>
		</g>
		<g>
			<path fill="#FFFFFF" d="M370.176,66.434c0,1.073-0.358,2.146-1.192,3.219c-0.715,1.192-1.431,2.146-2.146,2.981
				c-0.596,0.715-1.431,1.789-2.623,3.1c-0.596,0.596-1.073,1.073-1.669,1.55c-2.265,1.669-5.723-0.954-3.458-3.339
				c0.596-0.596,1.192-1.312,1.908-2.027c0.835-0.715,1.431-1.55,2.027-2.385c0.477-0.715,0.835-1.55,0.835-2.385
				c0-0.715-0.358-1.55-1.073-2.623c-0.715-0.954-1.669-1.908-2.623-3.1c-0.954-1.192-1.789-2.385-2.504-3.696
				c-0.835-1.312-1.192-2.742-1.192-4.173c0-2.504,0.954-5.127,2.742-7.75c0.835-1.312,1.789-2.385,2.981-3.1
				c1.073-0.835,2.265-1.192,3.458-1.192c0.238,0,0.596,0.119,0.835,0.477c0.238,0.238,0.596,0.596,0.835,1.073
				c0.477,0.954,0.835,1.669,0.835,2.265c0,0.954-1.192,1.312-1.789,1.789c-1.431,1.192-2.266,3.219-2.742,4.889
				c-0.238,0.954-0.477,1.908-0.477,2.862c0,1.192,0.358,2.385,1.073,3.339c0.715,0.954,1.431,1.908,2.385,2.862
				c0.954,0.835,1.669,1.789,2.385,2.623C369.819,64.288,370.176,65.242,370.176,66.434z"/>
		</g>
		<g>
			<g>
				<path fill="#FFFFFF" d="M178.683,63.811c-0.119,1.312-1.312,4.531-3.339,4.054c-1.789-0.477-2.862-2.981-2.981-4.412
					c-0.477-3.696,0.477-8.585,0.238-12.162c-0.358-2.862-0.477-5.843-0.238-8.704c0.119-0.835,0.477-1.431,1.073-1.789
					c0.596-0.358,1.312-0.477,2.027-0.477c0.715,0.119,2.504,0.358,2.862,0.954c0.238,0.477,0.358,1.192,0.358,2.027
					c-0.238,2.146-0.358,4.293-0.477,6.32c-0.119,1.669-0.119,3.339-0.119,5.008c0,1.073,0.119,2.265,0.358,3.458
					C178.683,59.161,178.802,62.738,178.683,63.811z M179.517,74.185c-0.119,0.954-0.477,1.669-1.192,2.265
					c-0.715,0.596-2.862,0.835-3.696,0.835c-0.835-0.119-1.312-0.596-1.312-1.431c-0.119-0.715-0.119-1.55,0-2.266
					c0.119-0.835,0.358-1.55,1.073-2.027c0.596-0.477,2.504-0.715,3.219-0.715c0.835,0.119,1.431,0.477,1.789,1.073
					C179.517,72.635,179.636,73.35,179.517,74.185z"/>
			</g>
		</g>
		<g>
			<g>
				<path fill="#FFFFFF" d="M100.344,54.749c0.119-1.192,0.119-4.769,1.431-5.246c2.504-0.715,4.769,2.862,4.889,4.412
					c0.477,3.696-0.477,8.585-0.238,12.162c0.358,2.862,0.477,5.843,0.238,8.704c-0.119,0.835-0.477,1.431-1.073,1.789
					c-0.596,0.358-2.504,0.477-3.339,0.477c-0.715-0.119-1.312-0.358-1.669-0.954c-0.238-0.477-0.358-1.192-0.358-2.027
					c0.238-2.146,0.358-4.293,0.477-6.32c0.119-1.669,0.119-3.339,0.119-5.008c0-1.073-0.119-2.265-0.358-3.458
					C100.344,58.207,100.344,55.822,100.344,54.749z M99.51,43.183c0.119-0.954,0.477-1.669,1.192-2.265
					c0.715-0.596,1.55-0.835,2.504-0.835c0.835,0.119,2.504,0.596,2.623,1.431c0.119,0.715,0.119,1.55,0,2.265
					c-0.119,0.835-0.358,1.55-1.073,2.027c-0.596,0.477-2.504,0.715-3.219,0.715c-0.835-0.119-1.431-0.477-1.789-1.073
					C99.51,44.733,99.39,44.018,99.51,43.183z"/>
			</g>
		</g>
		<g>
			<path fill="#FFFFFF" d="M237.705,44.018c0.119-0.715,0-1.431-0.358-1.908c-0.358-0.477-2.146-0.835-2.862-0.835
				c-0.715-0.119-1.431,0.119-2.027,0.477c-0.715,0.358-1.073,0.954-1.073,1.669c-0.238,2.742-0.119,5.485,0.238,8.227
				c0.119,0.596,0,1.312,0,1.908c0,0.596,0,1.431-0.238,2.027c-0.238,0.477-1.073,0.596-1.669,0.715
				c-0.835,0.119-1.669,0.238-2.504,0.238c-0.835,0-1.55-0.119-1.55-0.954c0-0.119,0-0.358,0-0.477c0-3.1,0.238-6.32,0-9.42
				c0-0.119,0-0.238,0-0.477c-0.238-1.431-2.385-3.696-4.889-2.981c-1.312,0.358-1.312,3.816-1.431,4.889
				c-0.119,0.954,0,11.208,0.119,12.401c0.238,1.192,0.358,2.265,0.358,3.219c0,1.55,0,3.219-0.119,4.65
				c-0.119,2.027-0.238,4.054-0.477,5.962c-0.119,0.715,0,1.431,0.358,1.908c0.358,0.477,0.835,0.835,1.669,0.835
				c0.715,0.119,2.623-0.119,3.339-0.477c0.715-0.358,1.073-0.954,1.073-1.669c0.238-2.742,0.119-5.485-0.238-8.227
				c-0.119-0.477,0-0.954,0-1.431c0-0.358,0-0.835,0.119-1.192c0.238-0.358,0.596-0.477,1.073-0.596
				c0.477-0.119,0.954-0.238,1.431-0.238c0.715-0.119,1.55-0.119,2.385,0c0.835,0.119,1.073,0.477,1.073,1.192
				c-0.119,0.954,0,1.908-0.119,2.742c0,1.431,0,2.862,0,4.412c0,0.238,0,0.358,0,0.596c0.119,1.431,1.192,3.696,2.981,4.173
				c2.027,0.477,3.219-2.623,3.339-3.816c0.119-0.954,0-12.281-0.119-13.593c-0.238-1.192-0.358-2.265-0.358-3.219
				c0-1.55,0-3.219,0.119-4.65C237.347,47.953,237.585,45.926,237.705,44.018z"/>
		</g>
	</g>
</g>
<g>
	<path fill="#FFFFFF" d="M109.125,25.572c0,1.16-0.423,2.05-1.268,2.669c-0.845,0.62-2.056,0.93-3.631,0.93
		c-1.583,0-2.854-0.24-3.813-0.72v-2.181c1.396,0.645,2.696,0.967,3.899,0.967c1.554,0,2.331-0.469,2.331-1.407
		c0-0.301-0.086-0.552-0.258-0.752s-0.455-0.408-0.849-0.623c-0.394-0.215-0.942-0.458-1.644-0.73
		c-1.368-0.53-2.293-1.06-2.777-1.59s-0.725-1.218-0.725-2.063c0-1.017,0.41-1.807,1.23-2.368c0.82-0.563,1.935-0.844,3.346-0.844
		c1.396,0,2.718,0.283,3.964,0.849l-0.816,1.901c-1.282-0.53-2.36-0.795-3.233-0.795c-1.332,0-1.998,0.38-1.998,1.139
		c0,0.372,0.173,0.688,0.521,0.945c0.347,0.258,1.104,0.612,2.272,1.063c0.981,0.38,1.693,0.727,2.138,1.042
		c0.444,0.315,0.773,0.679,0.988,1.09C109.017,24.507,109.125,24.999,109.125,25.572z"/>
	<path fill="#FFFFFF" d="M110.603,13.928c0-0.451,0.124-0.799,0.371-1.042s0.6-0.365,1.058-0.365c0.444,0,0.79,0.122,1.037,0.365
		s0.371,0.591,0.371,1.042c0,0.43-0.124,0.769-0.371,1.015c-0.247,0.248-0.593,0.371-1.037,0.371c-0.458,0-0.811-0.123-1.058-0.371
		C110.726,14.697,110.603,14.358,110.603,13.928z M113.278,28.956h-2.524V17.075h2.524V28.956z"/>
	<path fill="#FFFFFF" d="M125.82,17.075v1.386l-2.03,0.376c0.186,0.251,0.34,0.559,0.462,0.924c0.122,0.365,0.183,0.752,0.183,1.16
		c0,1.225-0.423,2.188-1.268,2.89c-0.845,0.702-2.009,1.053-3.491,1.053c-0.38,0-0.724-0.028-1.031-0.086
		c-0.544,0.337-0.816,0.73-0.816,1.182c0,0.272,0.127,0.477,0.381,0.612c0.254,0.136,0.721,0.204,1.402,0.204h2.073
		c1.311,0,2.306,0.279,2.986,0.838c0.68,0.559,1.021,1.364,1.021,2.417c0,1.347-0.555,2.385-1.665,3.115
		c-1.11,0.73-2.714,1.096-4.813,1.096c-1.619,0-2.854-0.286-3.706-0.859c-0.853-0.573-1.278-1.39-1.278-2.449
		c0-0.73,0.231-1.345,0.693-1.842c0.462-0.498,1.108-0.844,1.939-1.037c-0.337-0.144-0.614-0.374-0.833-0.693
		c-0.219-0.318-0.328-0.653-0.328-1.004c0-0.444,0.125-0.82,0.376-1.128c0.25-0.308,0.623-0.612,1.117-0.913
		c-0.616-0.265-1.116-0.696-1.499-1.295c-0.383-0.598-0.575-1.298-0.575-2.1c0-1.289,0.406-2.288,1.219-2.997
		c0.813-0.709,1.971-1.063,3.475-1.063c0.336,0,0.689,0.023,1.058,0.07c0.369,0.046,0.646,0.095,0.833,0.145H125.82z
		 M116.485,30.804c0,0.544,0.245,0.963,0.736,1.257c0.49,0.294,1.18,0.44,2.068,0.44c1.375,0,2.399-0.197,3.072-0.591
		c0.673-0.394,1.01-0.917,1.01-1.568c0-0.516-0.185-0.883-0.553-1.101c-0.369-0.219-1.055-0.328-2.057-0.328h-1.912
		c-0.724,0-1.298,0.17-1.724,0.51C116.698,29.764,116.485,30.224,116.485,30.804z M117.57,20.921c0,0.745,0.191,1.317,0.575,1.719
		c0.383,0.401,0.933,0.602,1.649,0.602c1.461,0,2.191-0.78,2.191-2.342c0-0.773-0.181-1.369-0.542-1.789
		c-0.362-0.418-0.912-0.628-1.649-0.628c-0.73,0-1.284,0.208-1.66,0.623S117.57,20.126,117.57,20.921z"/>
	<path fill="#FFFFFF" d="M137.375,28.956h-2.535v-7.305c0-0.917-0.185-1.601-0.553-2.052c-0.369-0.451-0.955-0.677-1.756-0.677
		c-1.067,0-1.848,0.315-2.342,0.945s-0.741,1.687-0.741,3.169v5.919h-2.524V17.075h1.977l0.354,1.558h0.129
		c0.358-0.565,0.866-1.003,1.525-1.311c0.659-0.308,1.389-0.462,2.191-0.462c2.85,0,4.275,1.45,4.275,4.351V28.956z"/>
	<path fill="#FFFFFF" d="M152.781,28.956l-0.354-1.558h-0.129c-0.351,0.552-0.851,0.984-1.499,1.3
		c-0.648,0.315-1.388,0.473-2.218,0.473c-1.439,0-2.514-0.358-3.223-1.074s-1.063-1.801-1.063-3.255v-7.767h2.546v7.326
		c0,0.909,0.186,1.592,0.559,2.047c0.372,0.454,0.956,0.682,1.751,0.682c1.06,0,1.838-0.316,2.336-0.951
		c0.498-0.633,0.747-1.695,0.747-3.185v-5.919h2.535v11.881H152.781z"/>
	<path fill="#FFFFFF" d="M163.293,29.171c-1.504,0-2.671-0.541-3.502-1.622h-0.15c0.1,1.003,0.15,1.611,0.15,1.826v4.866h-2.524
		V17.075h2.041c0.057,0.222,0.175,0.752,0.354,1.59h0.129c0.788-1.203,1.969-1.805,3.545-1.805c1.482,0,2.637,0.537,3.464,1.611
		s1.241,2.582,1.241,4.522s-0.421,3.455-1.262,4.544C165.937,28.627,164.776,29.171,163.293,29.171z M162.681,18.923
		c-1.003,0-1.735,0.294-2.197,0.881s-0.693,1.525-0.693,2.814v0.376c0,1.446,0.229,2.494,0.688,3.142
		c0.458,0.648,1.207,0.973,2.245,0.973c0.874,0,1.547-0.358,2.02-1.074s0.709-1.736,0.709-3.062c0-1.332-0.235-2.34-0.704-3.024
		C164.28,19.265,163.59,18.923,162.681,18.923z"/>
	<path fill="#FFFFFF" d="M184.232,28.956l-1.536-5.543c-0.187-0.587-0.523-1.951-1.01-4.093h-0.097
		c-0.416,1.934-0.745,3.305-0.988,4.114l-1.579,5.521h-2.793l-3.33-11.881h2.578l1.515,5.854c0.344,1.446,0.587,2.686,0.73,3.717
		h0.064c0.071-0.522,0.181-1.122,0.328-1.8c0.146-0.676,0.274-1.183,0.381-1.52l1.805-6.252h2.771l1.751,6.252
		c0.107,0.351,0.242,0.888,0.403,1.611s0.256,1.285,0.285,1.687h0.086c0.107-0.881,0.358-2.112,0.752-3.695l1.536-5.854h2.535
		l-3.352,11.881H184.232z"/>
	<path fill="#FFFFFF" d="M191.21,13.928c0-0.451,0.124-0.799,0.371-1.042s0.6-0.365,1.058-0.365c0.444,0,0.79,0.122,1.037,0.365
		s0.37,0.591,0.37,1.042c0,0.43-0.123,0.769-0.37,1.015c-0.247,0.248-0.593,0.371-1.037,0.371c-0.458,0-0.811-0.123-1.058-0.371
		C191.334,14.697,191.21,14.358,191.21,13.928z M193.885,28.956h-2.524V17.075h2.524V28.956z"/>
	<path fill="#FFFFFF" d="M200.821,27.13c0.615,0,1.231-0.097,1.848-0.29v1.901c-0.279,0.122-0.64,0.224-1.08,0.307
		c-0.44,0.082-0.896,0.123-1.369,0.123c-2.393,0-3.588-1.261-3.588-3.781v-6.402h-1.622V17.87l1.74-0.924l0.859-2.514h1.558v2.643
		h3.384v1.912h-3.384v6.359c0,0.608,0.151,1.059,0.456,1.348C199.927,26.986,200.326,27.13,200.821,27.13z"/>
	<path fill="#FFFFFF" d="M214.394,28.956h-2.535v-7.305c0-0.917-0.185-1.601-0.553-2.052c-0.369-0.451-0.955-0.677-1.757-0.677
		c-1.06,0-1.839,0.316-2.336,0.951c-0.498,0.633-0.747,1.695-0.747,3.185v5.897h-2.524V12.241h2.524v4.243
		c0,0.681-0.043,1.407-0.129,2.181h0.161c0.344-0.573,0.822-1.017,1.435-1.332s1.326-0.473,2.143-0.473
		c2.879,0,4.318,1.45,4.318,4.351V28.956z"/>
</g>
<g>
	<path fill="#FFFFFF" d="M57.817,46.018c6.136,0,11.106-4.97,11.106-11.106s-4.97-11.106-11.106-11.106s-11.106,4.97-11.106,11.106
		S51.681,46.018,57.817,46.018z M32.828,40.465v-8.33h-5.553v8.33h-8.33v5.553h8.33v8.33h5.553v-8.33h8.33v-5.553H32.828z
		 M57.817,51.571c-7.413,0-22.212,3.721-22.212,11.106v5.553h44.425v-5.553C80.029,55.292,65.23,51.571,57.817,51.571z"/>
</g>
</svg>
